<svg width="41" height="30" viewBox="0 0 41 30" fill="none" xmlns="http://www.w3.org/2000/svg">
<rect width="5.81643" height="5.81643" transform="matrix(1 0 0 -1 0 29.0825)" fill="#FF0000"/>
<rect width="5.81643" height="5.81643" transform="matrix(1 0 0 -1 0 23.2661)" fill="#FF0000"/>
<rect width="5.81643" height="5.81643" transform="matrix(1 0 0 -1 5.81641 23.2661)" fill="#FF0000"/>
<rect width="5.81643" height="5.81643" transform="matrix(1 0 0 -1 5.81641 17.4497)" fill="#FF0000"/>
<rect width="5.81643" height="5.81643" transform="matrix(1 0 0 -1 11.6328 17.4497)" fill="#FF0000"/>
<rect width="5.81643" height="5.81643" transform="matrix(1 0 0 -1 11.6328 11.6338)" fill="#FF0000"/>
<rect width="5.81643" height="5.81643" transform="matrix(1 0 0 -1 17.4487 11.6338)" fill="#FF0000"/>
<rect width="5.81643" height="5.81643" transform="matrix(1 0 0 -1 17.4487 5.81641)" fill="#FF0000"/>
<rect width="5.81643" height="5.81643" transform="matrix(1 0 0 -1 23.2661 17.4497)" fill="#FF0000"/>
<rect width="5.81643" height="5.81643" transform="matrix(1 0 0 -1 23.2661 11.6338)" fill="#FF0000"/>
<rect width="5.81643" height="5.81643" transform="matrix(1 0 0 -1 29.0825 23.2661)" fill="#FF0000"/>
<rect width="5.81643" height="5.81643" transform="matrix(1 0 0 -1 29.0825 17.4497)" fill="#FF0000"/>
<rect width="5.81643" height="5.81643" transform="matrix(1 0 0 -1 34.8989 29.0825)" fill="#FF0000"/>
<rect width="5.81643" height="5.81643" transform="matrix(1 0 0 -1 34.8989 23.2661)" fill="#FF0000"/>
</svg>
