<svg width="25" height="26" viewBox="0 0 25 26" fill="none" xmlns="http://www.w3.org/2000/svg">
<path d="M22.6218 14.7558V11.6109L25.0016 10.2378C24.6799 8.87105 24.1422 7.58752 23.4236 6.42722L20.7701 7.1378L18.5471 4.91483L19.2577 2.26135C18.0958 1.54277 16.8123 1.00503 15.4456 0.68335L14.0724 3.06316H10.9276L9.55445 0.68335C8.1877 1.00503 6.90417 1.54277 5.74387 2.26135L6.45445 4.91483L4.23148 7.1378L1.578 6.42722C0.85942 7.58752 0.321682 8.87105 0 10.2378L2.37981 11.6109V14.7542L0 16.1289C0.321682 17.4957 0.85942 18.7792 1.578 19.9395L4.23148 19.2289L6.45445 21.4519L5.74387 24.1053C6.90417 24.8239 8.1877 25.3617 9.55445 25.6833L10.9276 23.3035H14.0708L15.444 25.6833C16.8107 25.3617 18.0942 24.8239 19.2545 24.1053L18.5439 21.4519L20.7669 19.2289L23.4204 19.9395C24.139 18.7792 24.6767 17.4957 24.9984 16.1289L22.6218 14.7558ZM12.5008 17.7165C9.99776 17.7165 7.96684 15.6872 7.96684 13.1825C7.96684 10.6795 9.99616 8.64859 12.5008 8.64859C15.0054 8.64859 17.0348 10.6779 17.0348 13.1825C17.0332 15.6872 15.0038 17.7165 12.5008 17.7165Z" fill="white"/>
</svg>
