<svg width="122" height="122" viewBox="0 0 122 122" fill="none" xmlns="http://www.w3.org/2000/svg">
<path d="M74.664 55.876C70.516 55.876 67.344 59.536 67.344 64.172C67.344 68.808 70.76 72.468 74.664 72.468C78.812 72.468 81.984 68.808 81.984 64.172C81.984 59.536 78.568 55.876 74.664 55.876Z" fill="#C800FF"/>
<path d="M47.3361 55.876C43.1881 55.876 40.0161 59.536 40.0161 64.172C40.0161 68.808 43.4321 72.468 47.3361 72.468C51.4841 72.468 54.6561 68.808 54.6561 64.172C54.9001 59.536 51.4841 55.876 47.3361 55.876Z" fill="#C800FF"/>
<path d="M100.528 0H21.472C9.76 0 0 9.76 0 21.472V100.284C0 112.24 9.76 122 21.472 122H100.284C112.24 122 121.756 112.24 121.756 100.528V21.472C122 9.76 112.24 0 100.528 0ZM101.504 81.984C94.428 87.352 87.596 90.524 80.764 92.476C79.056 90.28 77.592 87.84 76.372 85.156C78.812 84.18 81.252 83.204 83.448 81.74C82.96 81.252 82.228 80.764 81.74 80.276C68.32 86.864 53.68 86.864 40.26 80.52C39.772 81.008 39.04 81.496 38.552 81.984C40.748 83.204 43.188 84.424 45.628 85.4C44.408 88.084 42.944 90.28 41.236 92.72C34.404 90.524 27.572 87.352 20.496 82.228C19.032 66.856 21.96 50.996 32.696 34.892C38.064 32.452 43.676 30.5 49.532 29.524C50.264 30.744 51.24 32.696 51.728 33.916C57.828 32.94 64.172 32.94 70.516 33.916C71.004 32.452 71.98 30.744 72.712 29.524C78.568 30.5 84.18 32.452 89.548 34.892C98.576 48.556 103.212 64.172 101.504 81.984Z" fill="#C800FF"/>
</svg>
