<svg xmlns="http://www.w3.org/2000/svg" fill="none" viewBox="0 0.5 47.91 48">
<path d="M29.3761 22.484C27.7441 22.484 26.4961 23.924 26.4961 25.748C26.4961 27.572 27.8401 29.012 29.3761 29.012C31.0081 29.012 32.2561 27.572 32.2561 25.748C32.2561 23.924 30.9121 22.484 29.3761 22.484Z" fill="#C800FF"/>
<path d="M18.6239 22.484C16.9919 22.484 15.7439 23.924 15.7439 25.748C15.7439 27.572 17.0879 29.012 18.6239 29.012C20.2559 29.012 21.5039 27.572 21.5039 25.748C21.5999 23.924 20.2559 22.484 18.6239 22.484Z" fill="#C800FF"/>
<path d="M39.552 0.5H8.448C3.84 0.5 0 4.34 0 8.948V39.956C0 44.66 3.84 48.5 8.448 48.5H39.456C44.16 48.5 47.904 44.66 47.904 40.052V8.948C48 4.34 44.16 0.5 39.552 0.5ZM39.936 32.756C37.152 34.868 34.464 36.116 31.776 36.884C31.104 36.02 30.528 35.06 30.048 34.004C31.008 33.62 31.968 33.236 32.832 32.66C32.64 32.468 32.352 32.276 32.16 32.084C26.88 34.676 21.12 34.676 15.84 32.18C15.648 32.372 15.36 32.564 15.168 32.756C16.032 33.236 16.992 33.716 17.952 34.1C17.472 35.156 16.896 36.02 16.224 36.98C13.536 36.116 10.848 34.868 8.064 32.852C7.488 26.804 8.64 20.564 12.864 14.228C14.976 13.268 17.184 12.5 19.488 12.116C19.776 12.596 20.16 13.364 20.352 13.844C22.752 13.46 25.248 13.46 27.744 13.844C27.936 13.268 28.32 12.596 28.608 12.116C30.912 12.5 33.12 13.268 35.232 14.228C38.784 19.604 40.608 25.748 39.936 32.756Z" fill="#C800FF"/>
</svg>