<svg width="21" height="21" viewBox="0 0 21 21" fill="none" xmlns="http://www.w3.org/2000/svg">
<g clip-path="url(#clip0_989_314)">
<path d="M12.9137 0.821289C12.2241 0.821289 11.6724 1.37301 11.6724 2.06267C11.6724 2.75232 12.2241 3.23508 12.9137 3.23508H16.2241L7.39649 12.0627C6.91373 12.5454 6.91373 13.304 7.39649 13.7868C7.60339 13.9937 7.94822 14.1316 8.22408 14.1316C8.56891 14.1316 8.84477 13.9937 9.05166 13.7868L17.9482 4.95922V8.26956C17.9482 8.95922 18.4999 9.51094 19.1896 9.51094C19.8793 9.51094 20.362 8.95922 20.362 8.26956V0.821289H12.9137Z" fill="white"/>
<path d="M19.1207 11.5799C18.3621 11.5799 17.7414 12.2006 17.7414 12.9592V16.2006C17.7414 17.1661 16.9828 17.9247 16.0172 17.9247H4.98276C4.01724 17.9247 3.25862 17.1661 3.25862 16.2006V5.16611C3.25862 4.20059 4.01724 3.44197 4.98276 3.44197H8.22414C8.98276 3.44197 9.60345 2.82128 9.60345 2.06266C9.60345 1.30404 8.98276 0.68335 8.22414 0.68335H4.98276C2.5 0.68335 0.5 2.68335 0.5 5.16611V16.2006C0.5 18.6833 2.5 20.6833 4.98276 20.6833H16.0172C18.5 20.6833 20.5 18.6833 20.5 16.2006V12.9592C20.5 12.2006 19.8793 11.5799 19.1207 11.5799Z" fill="white"/>
</g>
<defs>
<clipPath id="clip0_989_314">
<rect width="20" height="20" fill="white" transform="translate(0.5 0.68335)"/>
</clipPath>
</defs>
</svg>
