<svg width="20" height="20" viewBox="0 0 20 20" fill="none" xmlns="http://www.w3.org/2000/svg">
<path d="M18.1583 0.833313H1.84168C1.57425 0.833313 1.31778 0.939548 1.12868 1.12865C0.939578 1.31775 0.833344 1.57422 0.833344 1.84165V18.1583C0.833344 18.2907 0.859425 18.4218 0.910098 18.5442C0.960772 18.6665 1.03505 18.7777 1.12868 18.8713C1.22231 18.9649 1.33347 19.0392 1.4558 19.0899C1.57814 19.1406 1.70926 19.1666 1.84168 19.1666H10.6233V12.0625H8.24001V9.31248H10.6233V7.24998C10.574 6.76576 10.6311 6.2766 10.7908 5.81681C10.9505 5.35701 11.2089 4.93773 11.5478 4.58836C11.8867 4.23898 12.2979 3.96798 12.7526 3.79436C13.2073 3.62074 13.6945 3.54871 14.18 3.58331C14.8935 3.57892 15.6066 3.61565 16.3158 3.69331V6.16831H14.8583C13.7033 6.16831 13.4833 6.71831 13.4833 7.51581V9.28498H16.2333L15.8758 12.035H13.4833V19.1666H18.1583C18.2908 19.1666 18.4219 19.1406 18.5442 19.0899C18.6666 19.0392 18.7777 18.9649 18.8713 18.8713C18.965 18.7777 19.0392 18.6665 19.0899 18.5442C19.1406 18.4218 19.1667 18.2907 19.1667 18.1583V1.84165C19.1667 1.70923 19.1406 1.57811 19.0899 1.45577C19.0392 1.33344 18.965 1.22228 18.8713 1.12865C18.7777 1.03501 18.6666 0.960741 18.5442 0.910068C18.4219 0.859394 18.2908 0.833313 18.1583 0.833313V0.833313Z" fill="#FF0000"/>
</svg>
