<svg width="122" height="122" viewBox="0 0 122 122" fill="none" xmlns="http://www.w3.org/2000/svg">
<path d="M99.1123 0H22.8877C10.2177 0 0 10.2178 0 22.8878V99.1122C0 111.782 10.2177 122 22.8877 122H60.8978V69.2764H47.206V55.5846H60.8978V40.0536C60.8978 25.34 73.3635 24.9313 78.4724 24.9313C83.5813 24.9313 91.5511 24.9313 91.5511 24.9313V38.2144C91.5511 38.2144 86.0335 38.2144 82.7638 38.2144C78.4724 38.2144 78.881 42.3015 78.881 42.3015V55.7889H91.5511L90.1206 69.4807H78.881V122H99.1123C111.782 122 122 111.782 122 99.1122V22.8878C122 10.4221 111.578 0 99.1123 0Z" fill="#C800FF"/>
</svg>
