<svg xmlns="http://www.w3.org/2000/svg" fill="none" viewBox="0 0.5 48 48">
<path d="M38.995 0.5H9.00501C4.02009 0.5 0 4.5201 0 9.50502V39.495C0 44.4799 4.02009 48.5 9.00501 48.5H23.9598V27.7563H18.5729V22.3693H23.9598V16.2588C23.9598 10.4698 28.8643 10.309 30.8744 10.309C32.8844 10.309 36.0201 10.309 36.0201 10.309V15.5352C36.0201 15.5352 33.8493 15.5352 32.5628 15.5352C30.8744 15.5352 31.0352 17.1432 31.0352 17.1432V22.4497H36.0201L35.4573 27.8367H31.0352V48.5H38.995C43.9799 48.5 48 44.4799 48 39.495V9.50502C48 4.6005 43.8995 0.5 38.995 0.5Z" fill="#C800FF"/>
</svg>