<svg xmlns="http://www.w3.org/2000/svg" fill="none" viewBox="0 0.5 48 48">
<path d="M35.4574 17.7056C35.2966 16.4996 34.8142 15.4544 33.9297 14.57C32.8845 13.6855 31.6785 13.2835 30.3116 13.2835C26.9348 13.2031 23.5579 13.2031 20.181 13.2031C18.975 13.2031 17.6885 13.2031 16.4825 13.6051C14.3921 14.2484 13.3468 15.8564 13.186 17.786C13.0252 20.1981 13.0252 29.6855 13.186 31.2936C13.3468 32.58 13.9096 33.786 15.0353 34.6705C16.1609 35.4745 17.3669 35.7961 18.7338 35.7961C22.9147 35.8765 27.0152 36.0373 31.1961 35.6353C32.1609 35.5549 32.9649 35.2333 33.6885 34.6705C35.1358 33.6252 35.6182 32.0976 35.6182 30.4092C35.6986 27.2735 35.6986 24.2182 35.6986 21.0825C35.6182 19.9569 35.5378 18.8313 35.4574 17.7056ZM24.2815 31.6152C20.3418 31.6152 17.1257 28.3991 17.2061 24.4594C17.2865 20.5197 20.4222 17.384 24.3619 17.384C28.2212 17.384 31.5177 20.5197 31.4373 24.5398C31.4373 28.5599 28.0604 31.6956 24.2815 31.6152ZM31.6785 18.9921C30.6333 19.0725 29.8292 18.1076 29.7488 17.1428C29.7488 16.0976 30.6333 15.2132 31.6785 15.2132C32.7237 15.2132 33.6081 16.0976 33.6081 17.1428C33.6081 18.1076 32.8041 19.0725 31.6785 18.9921Z" fill="#C800FF"/>
<path d="M38.995 0.5H9.00502C4.0201 0.5 0 4.5201 0 9.50502V39.495C0 44.4799 4.0201 48.5 9.00502 48.5H38.995C43.9799 48.5 48 44.4799 48 39.495V9.50502C48 4.6005 43.8995 0.5 38.995 0.5ZM38.5126 30.6508C38.5126 32.1784 38.1106 33.6256 37.3065 34.9925C36.3417 36.6005 34.9749 37.6457 33.206 38.2085C31.598 38.7714 29.9096 38.7714 28.2211 38.7714C25.005 38.7714 21.8693 38.7714 18.6533 38.7714C16.9648 38.7714 15.3568 38.4497 13.9096 37.6457C12.2211 36.6809 11.0151 35.2337 10.4523 33.304C10.0503 32.0176 9.96985 30.7312 9.88945 29.3643C9.88945 29.1231 9.88945 21.6457 9.88945 18.9925C9.88945 17.1432 10.2111 15.3744 11.2563 13.7663C12.2211 12.3191 13.5075 11.2739 15.196 10.7111C16.804 10.1482 18.4925 10.1482 20.1809 10.1482C23.397 10.1482 26.6935 10.1482 29.9095 10.1482C31.7588 10.1482 33.4472 10.5503 35.0553 11.5955C36.8241 12.7211 37.8694 14.4095 38.191 16.4196C38.4322 17.6256 38.5126 18.8317 38.5126 20.1181C38.6734 23.7362 38.593 27.1935 38.5126 30.6508Z" fill="#C800FF"/>
<path d="M24.2812 20.199C21.8691 20.199 19.9395 22.1287 19.9395 24.4603C19.9395 26.8724 21.8691 28.802 24.2812 28.802C26.6128 28.802 28.5425 26.8724 28.5425 24.5407C28.7033 22.2895 26.6932 20.199 24.2812 20.199Z" fill="#C800FF"/>
</svg>