<svg width="122" height="122" viewBox="0 0 122 122" fill="none" xmlns="http://www.w3.org/2000/svg">
<path d="M90.1207 43.731C89.7119 40.6657 88.4858 38.0091 86.2379 35.7611C83.5813 33.5132 80.5159 32.4915 77.0419 32.4915C68.459 32.2871 59.8761 32.2871 51.2932 32.2871C48.2279 32.2871 44.9582 32.2871 41.8928 33.3089C36.5796 34.9437 33.923 39.0308 33.5143 43.9353C33.1056 50.066 33.1056 74.1799 33.5143 78.267C33.923 81.5367 35.3535 84.602 38.2144 86.8499C41.0754 88.8935 44.1407 89.7109 47.6148 89.7109C58.2413 89.9153 68.6634 90.324 79.2898 89.3022C81.7421 89.0978 83.7856 88.2804 85.6248 86.8499C89.3032 84.1933 90.5294 80.3106 90.5294 76.0191C90.7337 68.0493 90.7337 60.2838 90.7337 52.3139C90.5294 49.4529 90.325 46.592 90.1207 43.731ZM61.7153 79.0844C51.7019 79.0844 43.5277 70.9102 43.7321 60.8968C43.9364 50.8834 51.9062 42.9136 61.9196 42.9136C71.7287 42.9136 80.1073 50.8834 79.9029 61.1012C79.9029 71.3189 71.32 79.2888 61.7153 79.0844ZM80.516 47.0007C77.8594 47.205 75.8158 44.7528 75.6114 42.3005C75.6114 39.6439 77.8594 37.396 80.516 37.396C83.1726 37.396 85.4205 39.6439 85.4205 42.3005C85.4205 44.7528 83.3769 47.205 80.516 47.0007Z" fill="#C800FF"/>
<path d="M99.1123 0H22.8878C10.2178 0 0 10.2178 0 22.8878V99.1122C0 111.782 10.2178 122 22.8878 122H99.1123C111.782 122 122 111.782 122 99.1122V22.8878C122 10.4221 111.578 0 99.1123 0ZM97.8861 76.6332C97.8861 80.5159 96.8643 84.1943 94.8208 87.6683C92.3685 91.7554 88.8945 94.4121 84.3987 95.8425C80.3116 97.273 76.0201 97.273 71.7287 97.273C63.5545 97.273 55.5846 97.273 47.4104 97.273C43.1189 97.273 39.0318 96.4556 35.3534 94.4121C31.062 91.9598 27.9967 88.2814 26.5662 83.3769C25.5444 80.1072 25.34 76.8375 25.1357 73.3635C25.1357 72.7504 25.1357 53.7454 25.1357 47.0017C25.1357 42.3015 25.9531 37.8057 28.6097 33.7186C31.062 30.0402 34.3317 27.3836 38.6231 25.9531C42.7102 24.5226 47.0017 24.5226 51.2931 24.5226C59.4674 24.5226 67.8459 24.5226 76.0201 24.5226C80.7203 24.5226 85.0117 25.5444 89.0988 28.201C93.5947 31.062 96.2513 35.3534 97.0687 40.4623C97.6817 43.5276 97.8861 46.593 97.8861 49.8626C98.2948 59.0586 98.0905 67.8459 97.8861 76.6332Z" fill="#C800FF"/>
<path d="M61.7144 50.0684C55.5837 50.0684 50.6792 54.9729 50.6792 60.8992C50.6792 67.0298 55.5837 71.9344 61.7144 71.9344C67.6407 71.9344 72.5452 67.0298 72.5452 61.1035C72.9539 55.3816 67.845 50.0684 61.7144 50.0684Z" fill="#C800FF"/>
</svg>
