<svg width="20" height="20" viewBox="0 0 20 20" fill="none" xmlns="http://www.w3.org/2000/svg">
<path d="M17.7642 0.833319H2.23584C2.06128 0.830895 1.88796 0.862879 1.72577 0.927446C1.56358 0.992013 1.4157 1.0879 1.29057 1.20962C1.16544 1.33135 1.06551 1.47653 0.996495 1.63688C0.92748 1.79723 0.890727 1.9696 0.888336 2.14415V17.8558C0.890727 18.0304 0.92748 18.2027 0.996495 18.3631C1.06551 18.5234 1.16544 18.6686 1.29057 18.7903C1.4157 18.9121 1.56358 19.008 1.72577 19.0725C1.88796 19.1371 2.06128 19.1691 2.23584 19.1667H17.7642C17.9387 19.1691 18.112 19.1371 18.2742 19.0725C18.4364 19.008 18.5843 18.9121 18.7094 18.7903C18.8346 18.6686 18.9345 18.5234 19.0035 18.3631C19.0725 18.2027 19.1093 18.0304 19.1117 17.8558V2.14415C19.1093 1.9696 19.0725 1.79723 19.0035 1.63688C18.9345 1.47653 18.8346 1.33135 18.7094 1.20962C18.5843 1.0879 18.4364 0.992013 18.2742 0.927446C18.112 0.862879 17.9387 0.830895 17.7642 0.833319V0.833319ZM6.41584 16.1783H3.66584V7.92832H6.41584V16.1783ZM5.04084 6.77332C4.66158 6.77332 4.29785 6.62266 4.02967 6.35448C3.7615 6.08631 3.61084 5.72258 3.61084 5.34332C3.61084 4.96406 3.7615 4.60033 4.02967 4.33216C4.29785 4.06398 4.66158 3.91332 5.04084 3.91332C5.24222 3.89048 5.44616 3.91044 5.63931 3.97188C5.83245 4.03332 6.01043 4.13487 6.16161 4.26987C6.31278 4.40487 6.43374 4.57027 6.51655 4.75526C6.59937 4.94025 6.64218 5.14064 6.64218 5.34332C6.64218 5.546 6.59937 5.74639 6.51655 5.93138C6.43374 6.11636 6.31278 6.28177 6.16161 6.41677C6.01043 6.55177 5.83245 6.65332 5.63931 6.71476C5.44616 6.7762 5.24222 6.79616 5.04084 6.77332V6.77332ZM16.3342 16.1783H13.5842V11.7508C13.5842 10.6417 13.19 9.91749 12.1908 9.91749C11.8816 9.91975 11.5805 10.0167 11.3281 10.1954C11.0757 10.374 10.8841 10.6258 10.7792 10.9167C10.7074 11.1321 10.6764 11.359 10.6875 11.5858V16.1692H7.9375C7.9375 16.1692 7.9375 8.67082 7.9375 7.91915H10.6875V9.08332C10.9373 8.64983 11.3007 8.29271 11.7384 8.05042C12.1761 7.80813 12.6717 7.68985 13.1717 7.70832C15.005 7.70832 16.3342 8.89082 16.3342 11.43V16.1783Z" fill="#FF0000"/>
</svg>
