<svg width="25" height="26" viewBox="0 0 25 26" fill="none" xmlns="http://www.w3.org/2000/svg">
<path d="M12.5 0.68335C5.5975 0.68335 0 6.28085 0 13.1834C0 20.0859 5.5975 25.6834 12.5 25.6834C19.4025 25.6834 25 20.0859 25 13.1834C25 6.28085 19.405 0.68335 12.5 0.68335ZM6.1675 13.6034L6.22 13.5184L9.4725 8.43085C9.52 8.35835 9.6325 8.36585 9.6675 8.44585C10.21 9.66335 10.68 11.1783 10.46 12.1208C10.3675 12.5084 10.11 13.0334 9.82 13.5184C9.7825 13.5884 9.7425 13.6583 9.6975 13.7259C9.6775 13.7558 9.6425 13.7734 9.605 13.7734H6.2625C6.1725 13.7734 6.12 13.6759 6.1675 13.6034ZM20.66 15.3534C20.66 15.4009 20.6325 15.4409 20.5925 15.4584C20.34 15.5659 19.4775 15.9634 19.12 16.4609C18.205 17.7334 17.5075 19.5534 15.945 19.5534H9.43C7.12 19.5534 5.25 17.6759 5.25 15.3584V15.2834C5.25 15.2234 5.3 15.1734 5.3625 15.1734H8.9925C9.065 15.1734 9.1175 15.2384 9.1125 15.3109C9.085 15.5459 9.13 15.7884 9.2425 16.0083C9.4575 16.4458 9.905 16.7184 10.3875 16.7184H12.185V15.3159H10.4075C10.3175 15.3159 10.2625 15.2108 10.315 15.1358C10.335 15.1059 10.355 15.0759 10.38 15.0409C10.5475 14.8008 10.7875 14.4309 11.0275 14.0084C11.19 13.7234 11.3475 13.4184 11.475 13.1134C11.5 13.0584 11.52 13.0009 11.5425 12.9459C11.5775 12.8484 11.6125 12.7559 11.6375 12.6659C11.6625 12.5884 11.685 12.5084 11.705 12.4333C11.765 12.1734 11.79 11.8983 11.79 11.6133C11.79 11.5008 11.785 11.3834 11.775 11.2734C11.77 11.1509 11.755 11.0283 11.74 10.9058C11.73 10.7983 11.71 10.6909 11.69 10.5809C11.6625 10.4184 11.6275 10.2558 11.5875 10.0933L11.5725 10.0309C11.5425 9.91835 11.515 9.81335 11.48 9.70085C11.3775 9.35085 11.2625 9.00835 11.1375 8.68835C11.0925 8.56085 11.0425 8.43835 10.99 8.31835C10.915 8.13335 10.8375 7.96585 10.7675 7.80835C10.73 7.73585 10.7 7.67085 10.67 7.60335C10.635 7.52835 10.6 7.45335 10.5625 7.38085C10.5375 7.32585 10.5075 7.27335 10.4875 7.22335L10.2675 6.81835C10.2375 6.76335 10.2875 6.69585 10.3475 6.71335L11.7225 7.08585H11.7275C11.73 7.08585 11.73 7.08585 11.7325 7.08585L11.9125 7.13835L12.1125 7.19335L12.185 7.21335V6.39835C12.185 6.00335 12.5 5.68335 12.8925 5.68335C13.0875 5.68335 13.265 5.76335 13.39 5.89335C13.5175 6.02335 13.5975 6.20085 13.5975 6.39835V7.61085L13.745 7.65085C13.755 7.65585 13.7675 7.66085 13.7775 7.66835C13.8125 7.69335 13.865 7.73335 13.93 7.78335C13.9825 7.82335 14.0375 7.87335 14.1025 7.92585C14.235 8.03335 14.395 8.17085 14.5675 8.32835C14.6125 8.36835 14.6575 8.40835 14.7 8.45085C14.9225 8.65835 15.1725 8.90085 15.4125 9.17085C15.48 9.24835 15.545 9.32335 15.6125 9.40585C15.6775 9.48835 15.75 9.56835 15.81 9.64835C15.8925 9.75585 15.9775 9.86835 16.055 9.98585C16.09 10.0408 16.1325 10.0983 16.165 10.1533C16.265 10.3008 16.35 10.4534 16.4325 10.6059C16.4675 10.6758 16.5025 10.7534 16.5325 10.8284C16.625 11.0333 16.6975 11.2409 16.7425 11.4509C16.7575 11.4959 16.7675 11.5434 16.7725 11.5884V11.5983C16.7875 11.6583 16.7925 11.7233 16.7975 11.7908C16.8175 12.0034 16.8075 12.2184 16.7625 12.4333C16.7425 12.5233 16.7175 12.6084 16.6875 12.7009C16.655 12.7884 16.625 12.8784 16.585 12.9658C16.5075 13.1433 16.4175 13.3233 16.31 13.4883C16.275 13.5508 16.2325 13.6159 16.1925 13.6784C16.1475 13.7434 16.1 13.8059 16.06 13.8659C16.0025 13.9434 15.9425 14.0233 15.88 14.0958C15.825 14.1708 15.77 14.2459 15.7075 14.3134C15.6225 14.4159 15.54 14.5108 15.4525 14.6033C15.4025 14.6634 15.3475 14.7259 15.29 14.7809C15.235 14.8434 15.1775 14.8984 15.1275 14.9483C15.04 15.0359 14.97 15.1009 14.91 15.1584L14.7675 15.2859C14.7475 15.3059 14.72 15.3159 14.6925 15.3159H13.5975V16.7184H14.975C15.2825 16.7184 15.575 16.6109 15.8125 16.4084C15.8925 16.3384 16.245 16.0333 16.6625 15.5733C16.6775 15.5559 16.695 15.5458 16.715 15.5409L20.5175 14.4409C20.59 14.4209 20.66 14.4734 20.66 14.5484V15.3534Z" fill="white"/>
</svg>
