<svg width="217" height="217" viewBox="0 0 217 217" fill="none" xmlns="http://www.w3.org/2000/svg">
<path d="M71.1172 216.4C58.4172 216.4 48.1172 206.1 48.1172 193.4C48.1172 180.7 58.4172 170.4 71.1172 170.4C83.8172 170.4 94.1172 180.7 94.1172 193.4C94.1172 206.1 83.8172 216.4 71.1172 216.4ZM71.1172 182.3C65.0172 182.3 60.1172 187.2 60.1172 193.3C60.1172 199.4 65.0172 204.3 71.1172 204.3C77.2172 204.3 82.1172 199.4 82.1172 193.3C82.1172 187.2 77.2172 182.3 71.1172 182.3Z" fill="#C4C4C4"/>
<path d="M163.617 216.4C150.917 216.4 140.617 206.1 140.617 193.4C140.617 180.7 150.917 170.4 163.617 170.4C176.317 170.4 186.617 180.7 186.617 193.4C186.617 206.1 176.217 216.4 163.617 216.4ZM163.617 182.3C157.517 182.3 152.617 187.2 152.617 193.3C152.617 199.4 157.517 204.3 163.617 204.3C169.717 204.3 174.617 199.4 174.617 193.3C174.617 187.2 169.617 182.3 163.617 182.3Z" fill="#C4C4C4"/>
<path d="M40.317 19.8L40.717 22.4L52.817 113.3C53.317 116.8 56.217 119.4 59.717 119.4H182.117C185.617 119.4 188.517 116.8 189.017 113.4L189.517 109.4H69.117C64.817 109.4 61.117 106.2 60.817 101.9C60.517 97.3 64.217 93.4 68.817 93.4H191.617L193.117 82.4H111.417C107.117 82.4 103.417 79.2 103.117 74.9C102.817 70.3 106.517 66.4 111.117 66.4H195.217L196.717 55.4H155.117C150.817 55.4 147.117 52.2 146.817 47.9C146.517 43.3 150.217 39.4 154.817 39.4H198.817L200.417 27.3C200.817 24.4 202.617 21.8 205.417 20.7C209.817 19 214.817 21.4 216.117 26C216.417 27.1 216.417 28.2 216.317 29.3L204.617 117C203.217 127.7 194.117 135.7 183.317 135.7H56.417C55.217 135.7 54.217 136.5 53.817 137.6L50.517 148.5H194.417C198.717 148.5 202.417 151.7 202.717 156C203.017 160.6 199.317 164.5 194.717 164.5L41.517 164C38.117 164 35.017 164.2 32.917 160.8C31.717 158.9 31.517 156.6 32.217 154.4L39.017 132.3L27.617 45.6L27.217 43L23.817 17.5C23.717 16.6 23.017 16 22.217 16H8.31704C4.01704 16 0.317042 12.8 0.0170421 8.5C-0.282958 3.9 3.41704 0 8.01704 0H35.017C36.517 0 37.817 1.1 38.017 2.6L40.317 19.8Z" fill="#C4C4C4"/>
</svg>
