<svg xmlns="http://www.w3.org/2000/svg" fill="none" viewBox="0 0.5 48 48">
<path d="M38.995 0.5H9.00502C4.0201 0.5 0 4.5201 0 9.50502V39.495C0 44.4799 4.0201 48.5 9.00502 48.5H38.995C43.9799 48.5 48 44.4799 48 39.495V9.50502C48 4.5201 43.8995 0.5 38.995 0.5ZM37.6281 14.7312C37.4673 17.0628 33.1256 34.6709 33.1256 34.6709C33.1256 34.6709 32.8844 35.7161 31.9196 35.7161C31.598 35.7161 31.196 35.6357 30.6332 35.2337C29.6683 34.3492 27.3367 32.7412 25.2462 31.294C24.603 31.8568 23.3166 32.9824 22.0302 34.2688C20.1809 36.1181 20.4221 34.2688 20.4221 34.2688L20.9849 28.1583C20.9849 28.0779 21.0653 28.0779 21.0653 28.0779C21.0653 28.0779 32.1608 18.2688 32.402 17.2236C32.402 17.1432 32.3216 17.1432 32.2412 17.1432C31.5176 17.3844 18.7337 25.4246 17.3668 26.309C17.2864 26.3894 17.0452 26.309 17.0452 26.309L10.8543 24.299C10.8543 24.299 10.1307 23.9774 10.3719 23.3342C10.4523 23.1734 10.5327 23.093 10.8543 22.8518C12.1407 21.9673 36.1809 13.3643 36.1809 13.3643C36.1809 13.3643 36.8241 13.1231 37.2261 13.2839C37.3869 13.3643 37.5477 13.4447 37.6281 13.6859C37.6281 13.7663 37.7085 14.0075 37.7085 14.2487C37.7085 14.4095 37.6281 14.5704 37.6281 14.7312Z" fill="#C800FF"/>
</svg>