<svg width="122" height="122" viewBox="0 0 122 122" fill="none" xmlns="http://www.w3.org/2000/svg">
<path d="M99.1122 0H22.8878C10.2178 0 0 10.2178 0 22.8878V99.1122C0 111.782 10.2178 122 22.8878 122H99.1122C111.782 122 122 111.782 122 99.1122V22.8878C122 10.2178 111.578 0 99.1122 0ZM95.6382 36.1709C95.2295 42.0972 84.1943 86.8509 84.1943 86.8509C84.1943 86.8509 83.5812 89.5075 81.129 89.5075C80.3116 89.5075 79.2898 89.3032 77.8593 88.2814C75.407 86.0335 69.4807 81.9464 64.1675 78.268C62.5327 79.6985 59.263 82.5595 55.9933 85.8291C51.2931 90.5293 51.9062 85.8291 51.9062 85.8291L53.3367 70.2982C53.3367 70.0938 53.541 70.0938 53.541 70.0938C53.541 70.0938 81.7421 45.1625 82.3551 42.5059C82.3551 42.3015 82.1508 42.3015 81.9464 42.3015C80.1072 42.9146 47.6147 63.3501 44.1407 65.598C43.9363 65.8023 43.3233 65.598 43.3233 65.598L27.5879 60.4891C27.5879 60.4891 25.7487 59.6717 26.3618 58.0369C26.5662 57.6281 26.7705 57.4238 27.5879 56.8107C30.8576 54.5628 91.9598 32.6968 91.9598 32.6968C91.9598 32.6968 93.5946 32.0838 94.6164 32.4925C95.0251 32.6968 95.4338 32.9012 95.6382 33.5142C95.6382 33.7186 95.8426 34.3317 95.8426 34.9447C95.8426 35.3534 95.6382 35.7621 95.6382 36.1709Z" fill="#C800FF"/>
</svg>
