<svg width="7" height="9" viewBox="0 0 7 9" fill="none" xmlns="http://www.w3.org/2000/svg">
<path d="M4.73317 8.95879C5.24842 8.95879 5.69006 8.50674 5.76367 7.90674L6.47765 2.07112C6.48501 2.01359 6.47029 1.95605 6.43349 1.90674C6.39668 1.86564 6.34516 1.83276 6.29364 1.83276H0.655358C0.603833 1.83276 0.552309 1.85742 0.515505 1.89852C0.478702 1.93961 0.46398 1.99715 0.471341 2.05468L1.06019 7.87386C1.12644 8.4903 1.56808 8.95879 2.09805 8.95879H4.73317ZM5.40299 7.8492C5.35147 8.25194 5.0644 8.54783 4.73317 8.54783H2.10541C1.76682 8.54783 1.47975 8.23551 1.43559 7.82455L0.868817 2.2355H6.08754L5.40299 7.8492Z" fill="white"/>
<path d="M0.662572 1.87394C0.618408 1.87394 0.581605 1.89038 0.552162 1.93147C0.522719 1.96435 0.507998 2.01367 0.515359 2.06298L1.10421 7.88216C1.1631 8.48216 1.59738 8.926 2.10526 8.926H4.73302C5.23355 8.926 5.66047 8.49038 5.72671 7.90682L6.4407 2.05476C6.44806 2.00545 6.43334 1.95613 6.4039 1.92325C6.38181 1.89038 6.33765 1.87394 6.29349 1.87394H0.662572ZM0.824507 2.20271H6.12419L5.43229 7.8575C5.38076 8.27668 5.07897 8.58901 4.72566 8.58901H2.0979C1.73723 8.58901 1.43544 8.26024 1.39128 7.83285L0.824507 2.20271ZM0.662572 1.79175H6.29349C6.35973 1.79175 6.41862 1.82462 6.46278 1.87394C6.50695 1.93147 6.52167 1.99723 6.51431 2.0712L5.80032 7.90682C5.72671 8.53148 5.26299 8.99997 4.73302 8.99997H2.10526C1.56057 8.99997 1.09685 8.51504 1.03061 7.88216L0.441752 2.06298C0.434391 1.99723 0.456473 1.92325 0.493277 1.87394C0.537441 1.81641 0.596326 1.79175 0.662572 1.79175ZM6.04322 2.2849H0.905474L1.46489 7.82463C1.50169 8.21093 1.77403 8.50682 2.0979 8.50682H4.73302C5.04953 8.50682 5.32188 8.21915 5.36604 7.84107L6.04322 2.2849Z" fill="white"/>
<path d="M6.77936 2.24377C6.88241 2.24377 6.96338 2.15336 6.96338 2.03829V0.961583C6.96338 0.846514 6.88241 0.756104 6.77936 0.756104H0.221002C0.117952 0.756104 0.0369849 0.846514 0.0369849 0.961583V2.03829C0.0369849 2.15336 0.117952 2.24377 0.221002 2.24377H6.77936ZM0.405019 1.83282V1.16706H6.59535V1.83282H0.405019Z" fill="white"/>
<path d="M0.22082 0.79728C0.139853 0.79728 0.073607 0.871252 0.073607 0.961663V2.03838C0.073607 2.12879 0.139853 2.20276 0.22082 2.20276H6.77918C6.86015 2.20276 6.92639 2.12879 6.92639 2.03838V0.961663C6.92639 0.871252 6.86015 0.79728 6.77918 0.79728H0.22082ZM6.63197 1.87399H0.368034V1.12605H6.63197V1.87399ZM0.22082 0.715088H6.77918C6.90431 0.715088 7 0.821937 7 0.961663V2.03838C7 2.1781 6.90431 2.28495 6.77918 2.28495H0.22082C0.0956888 2.28495 0 2.1781 0 2.03838V0.961663C0 0.821937 0.10305 0.715088 0.22082 0.715088ZM6.55836 1.20824H0.44164V1.7918H6.55836V1.20824Z" fill="white"/>
<path d="M4.29889 1.16704C4.40194 1.16704 4.48291 1.07663 4.48291 0.961564V0.246495C4.48291 0.131427 4.40194 0.0410156 4.29889 0.0410156H2.70163C2.59858 0.0410156 2.51761 0.131427 2.51761 0.246495V0.961564C2.51761 1.07663 2.59858 1.16704 2.70163 1.16704H4.29889ZM2.88564 0.756084V0.451975H4.11488V0.756084H2.88564Z" fill="white"/>
<path d="M2.70144 0.0821918C2.62048 0.0821918 2.55423 0.156164 2.55423 0.246575V0.961644C2.55423 1.05205 2.62048 1.12603 2.70144 1.12603H4.29871C4.37968 1.12603 4.44592 1.05205 4.44592 0.961644V0.246575C4.44592 0.156164 4.37968 0.0821918 4.29871 0.0821918H2.70144ZM4.1515 0.79726H2.84866V0.410959H4.1515V0.79726ZM2.70144 0H4.29871C4.42384 0 4.51953 0.106849 4.51953 0.246575V0.961644C4.51953 1.10137 4.42384 1.20822 4.29871 1.20822H2.70144C2.57631 1.20822 2.48062 1.10137 2.48062 0.961644V0.246575C2.48062 0.106849 2.58367 0 2.70144 0ZM4.07789 0.493151H2.92226V0.715068H4.07789V0.493151Z" fill="white"/>
<path d="M4.44677 7.1112L4.81201 7.16162L4.7226 7.96913L4.35736 7.91871L4.44677 7.1112Z" fill="white"/>
<path d="M4.48252 7.15071L4.40155 7.874L4.69598 7.9151L4.77694 7.19181L4.48252 7.15071ZM4.41627 7.0603L4.48988 7.06852L4.7843 7.10962L4.85791 7.11784L4.85055 7.20003L4.76958 7.92332L4.76222 8.00551L4.68861 7.99729L4.39419 7.95619L4.32058 7.94797L4.32794 7.86578L4.40891 7.14249L4.41627 7.0603Z" fill="white"/>
<path d="M4.91308 2.89171L5.27832 2.94214L4.80236 7.24073L4.43712 7.1903L4.91308 2.89171Z" fill="white"/>
<path d="M4.94635 2.93416L4.48262 7.1506L4.77705 7.1917L5.24077 2.97526L4.94635 2.93416ZM4.88746 2.84375L4.96107 2.85197L5.25549 2.89307L5.3291 2.90128L5.32174 2.98348L4.85802 7.19992L4.85066 7.28211L4.77705 7.27389L4.48262 7.23279L4.40902 7.22457L4.41638 7.14238L4.8801 2.92594L4.88746 2.84375Z" fill="white"/>
<path d="M2.55077 7.10565L2.63916 7.91333L2.27385 7.96318L2.18546 7.1555L2.55077 7.10565Z" fill="white"/>
<path d="M2.51726 7.15071L2.22284 7.19181L2.3038 7.9151L2.59823 7.874L2.51726 7.15071ZM2.58351 7.0603L2.59087 7.14249L2.67184 7.86578L2.6792 7.94797L2.60559 7.95619L2.31117 7.99729L2.23756 8.00551L2.2302 7.92332L2.14923 7.20003L2.14187 7.11784L2.21548 7.10962L2.5099 7.06852L2.58351 7.0603Z" fill="white"/>
<path d="M2.09099 2.89366L2.56152 7.19312L2.19621 7.24296L1.72568 2.94351L2.09099 2.89366Z" fill="white"/>
<path d="M2.05345 2.93416L1.75903 2.97526L2.22275 7.1917L2.51718 7.1506L2.05345 2.93416ZM2.1197 2.84375L2.12706 2.92594L2.59078 7.14238L2.59814 7.22457L2.52454 7.23279L2.23011 7.27389L2.1565 7.28211L2.14914 7.19992L1.68542 2.98348L1.67806 2.90128L1.75167 2.89307L2.04609 2.85197L2.1197 2.84375Z" fill="white"/>
<path d="M3.31654 2.91638L3.68457 2.91919L3.66127 6.72467L3.29324 6.72186L3.31654 2.91638Z" fill="white"/>
<path d="M3.35658 2.9506L3.33449 6.67389H3.62892L3.651 2.95882L3.35658 2.9506ZM3.28297 2.86841H3.35658H3.651H3.72461V2.9506L3.70253 6.67389V6.75608H3.62892H3.33449H3.26089V6.67389L3.28297 2.9506V2.86841Z" fill="white"/>
<path d="M3.29017 6.63281H3.6582V7.93966H3.29017V6.63281Z" fill="white"/>
<path d="M3.32679 6.67399V7.89865H3.62122V6.67399H3.32679ZM3.25318 6.5918H3.32679H3.62122H3.69482V6.67399V7.89865V7.98084H3.62122H3.32679H3.25318V7.89865V6.67399V6.5918Z" fill="white"/>
</svg>
