<svg width="122" height="122" viewBox="0 0 122 122" fill="none" xmlns="http://www.w3.org/2000/svg">
<path d="M99.1122 0H22.8878C10.2178 0 0 10.2178 0 22.8878V99.1122C0 111.782 10.2178 122 22.8878 122H99.1122C111.782 122 122 111.782 122 99.1122V22.8878C122 10.4221 111.782 0 99.1122 0ZM89.7119 45.7755C89.7119 47.4104 89.0988 51.0888 89.0988 51.4975C87.0553 70.5025 74.9983 80.5159 71.5243 82.9682C50.2713 97.4774 26.3618 83.99 26.3618 83.99C33.5142 84.1943 40.258 82.3551 46.1843 77.8593C39.6449 77.0419 35.1491 73.7722 32.9012 67.8459C34.9447 67.8459 36.7839 67.6415 38.6231 67.6415C30.6532 64.7806 27.3836 58.0368 27.7923 53.1323C29.6315 53.7454 31.675 54.1541 33.5142 54.7672C33.5142 54.5628 33.7186 54.5628 33.7186 54.3585C32.6968 53.3367 31.675 52.5193 30.8576 51.4975C27.9967 47.6147 27.1792 43.3233 28.201 38.8275C29.0184 36.5796 30.0402 35.1491 30.0402 35.1491C30.2446 35.5578 31.8794 37.6013 32.4924 38.2144C35.5578 41.4841 39.2362 43.9363 42.7102 45.7755C47.4104 48.2278 52.7236 49.8626 58.6499 50.4757C59.263 50.4757 59.6717 50.4757 59.6717 50.4757C59.6717 49.6583 59.6717 48.8409 59.6717 48.0234C59.4674 43.5276 60.8978 39.6449 64.1675 36.5796C67.8459 33.1055 72.1374 32.0838 77.0419 32.9012C79.9029 33.3099 82.3551 34.536 84.3986 36.5796C85.4204 37.6013 86.4422 36.9883 87.2596 36.5796C89.5075 35.7621 91.7554 34.9447 94.2077 33.9229C93.3903 36.9883 91.3467 39.2362 88.6901 41.2797C91.3467 41.2797 93.5946 40.258 96.0469 39.8492C93.1859 43.732 89.7119 45.7755 89.7119 45.7755Z" fill="#C800FF"/>
</svg>
