<svg xmlns="http://www.w3.org/2000/svg" fill="none" viewBox="0 0.5 48 48">
<path d="M38.995 0.5H9.00503C4.02011 0.5 0 4.5201 0 9.50502V39.495C0 44.4799 4.02011 48.5 9.00503 48.5H38.995C43.9799 48.5 48 44.4799 48 39.495V9.50502C48 4.6005 43.9799 0.5 38.995 0.5ZM35.2965 18.5101C35.2965 19.1533 35.0553 20.6005 35.0553 20.7613C34.2513 28.2387 29.5075 32.1784 28.1407 33.1432C19.7789 38.8518 10.3719 33.5452 10.3719 33.5452C13.1859 33.6256 15.8392 32.902 18.1709 31.1332C15.598 30.8116 13.8291 29.5251 12.9447 27.1935C13.7487 27.1935 14.4724 27.1131 15.196 27.1131C12.0603 25.9874 10.7739 23.3342 10.9347 21.4045C11.6583 21.6457 12.4623 21.8065 13.1859 22.0477C13.1859 21.9673 13.2663 21.9673 13.2663 21.8869C12.8643 21.4849 12.4623 21.1633 12.1407 20.7613C11.0151 19.2337 10.6935 17.5452 11.0955 15.7764C11.4171 14.892 11.8191 14.3291 11.8191 14.3291C11.8995 14.49 12.5427 15.294 12.7839 15.5352C13.9899 16.8216 15.4372 17.7864 16.804 18.5101C18.6533 19.4749 20.7437 20.1181 23.0754 20.3593C23.3166 20.3593 23.4774 20.3593 23.4774 20.3593C23.4774 20.0377 23.4774 19.7161 23.4774 19.3945C23.397 17.6256 23.9598 16.098 25.2462 14.892C26.6935 13.5251 28.3819 13.1231 30.3116 13.4447C31.4372 13.6055 32.402 14.0879 33.206 14.892C33.608 15.294 34.0101 15.0528 34.3317 14.892C35.2161 14.5704 36.1005 14.2487 37.0653 13.8467C36.7437 15.0528 35.9397 15.9372 34.8945 16.7412C35.9397 16.7412 36.8241 16.3392 37.7889 16.1784C36.6633 17.706 35.2965 18.5101 35.2965 18.5101Z" fill="#C800FF"/>
</svg>