<svg width="20" height="16" viewBox="0 0 20 16" fill="none" xmlns="http://www.w3.org/2000/svg">
<path d="M19.1667 2.31668C18.4777 2.6156 17.749 2.8132 17.0033 2.90334C17.79 2.43339 18.3795 1.69406 18.6625 0.822509C17.9233 1.26257 17.114 1.57261 16.27 1.73918C15.7058 1.12737 14.9546 0.720114 14.134 0.58129C13.3134 0.442465 12.47 0.579921 11.736 0.972099C11.002 1.36428 10.4189 1.989 10.0781 2.74828C9.73743 3.50756 9.65836 4.35845 9.85334 5.16751C8.35865 5.09191 6.89658 4.70272 5.56211 4.02522C4.22764 3.34772 3.05062 2.39706 2.10751 1.23501C1.77672 1.81266 1.6029 2.46685 1.60334 3.13251C1.60217 3.75069 1.75388 4.35957 2.04495 4.90494C2.33603 5.45031 2.75744 5.91524 3.27168 6.25834C2.67399 6.24208 2.08907 6.0817 1.56668 5.79084V5.83668C1.57116 6.70283 1.87467 7.54084 2.42588 8.20898C2.97709 8.87711 3.74216 9.33435 4.59168 9.50334C4.26466 9.60286 3.92515 9.65533 3.58334 9.65918C3.34674 9.65641 3.11073 9.63496 2.87751 9.59501C3.11943 10.3401 3.58758 10.9912 4.21683 11.4578C4.84608 11.9244 5.60512 12.1833 6.38834 12.1983C5.06578 13.239 3.4329 13.807 1.75001 13.8117C1.4436 13.8127 1.13743 13.7943 0.833344 13.7567C2.55157 14.8661 4.55392 15.455 6.59918 15.4525C8.01056 15.4672 9.41072 15.2004 10.7179 14.6679C12.025 14.1354 13.2129 13.3477 14.2123 12.351C15.2116 11.3542 16.0023 10.1683 16.5382 8.86251C17.0741 7.55673 17.3444 6.15726 17.3333 4.74584C17.3333 4.59001 17.3333 4.42501 17.3333 4.26001C18.0526 3.72359 18.673 3.06598 19.1667 2.31668V2.31668Z" fill="#FF0000"/>
</svg>
