<svg width="150" height="336" viewBox="0 0 150 336" fill="none" xmlns="http://www.w3.org/2000/svg">
<g style="mix-blend-mode:luminosity">
<path d="M147 288C148.6 294.4 149.4 302.4 149.4 312C149.4 321.2 148.6 329.2 147 336H3C1.4 329.2 0.600003 321.2 0.600003 312C0.600003 302.4 1.4 294.4 3 288H51C49.4 281.2 48.6 273.2 48.6 264C48.6 254.4 49.4 246.4 51 240C49.4 233.2 48.6 225.2 48.6 216C48.6 206.4 49.4 198.4 51 192C49.4 185.2 48.6 177.2 48.6 168C48.6 158.4 49.4 150.4 51 144C49.4 137.2 48.6 129.2 48.6 120C48.6 110.4 49.4 102.4 51 96H15C13.4 89.2 12.6 81.2 12.6 72C12.6 62.4 13.4 54.4 15 48H51C49.4 41.2 48.6 33.2 48.6 24C48.6 14.4 49.4 6.39999 51 -1.43051e-06H99C100.6 6.39999 101.4 14.4 101.4 24C101.4 33.2 100.6 41.2 99 48C100.6 54.4 101.4 62.4 101.4 72C101.4 81.2 100.6 89.2 99 96C100.6 102.4 101.4 110.4 101.4 120C101.4 129.2 100.6 137.2 99 144C100.6 150.4 101.4 158.4 101.4 168C101.4 177.2 100.6 185.2 99 192C100.6 198.4 101.4 206.4 101.4 216C101.4 225.2 100.6 233.2 99 240C100.6 246.4 101.4 254.4 101.4 264C101.4 273.2 100.6 281.2 99 288H147Z" fill="#474747"/>
</g>
</svg>
