<svg width="174" height="336" viewBox="0 0 174 336" fill="none" xmlns="http://www.w3.org/2000/svg">
<g style="mix-blend-mode:luminosity">
<path d="M173.4 120C173.4 129.2 172.6 137.2 171 144H141C142.6 150.4 143.4 158.4 143.4 168C143.4 177.2 142.6 185.2 141 192H111C112.6 198.4 113.4 206.4 113.4 216C113.4 225.2 112.6 233.2 111 240H81C82.6 246.4 83.4 254.4 83.4 264C83.4 273.2 82.6 281.2 81 288H171C172.6 294.4 173.4 302.4 173.4 312C173.4 321.2 172.6 329.2 171 336H3C1.4 329.2 0.600001 321.2 0.600001 312C0.600001 302.4 1.4 294.4 3 288H33C31.4 281.2 30.6 273.2 30.6 264C30.6 254.4 31.4 246.4 33 240H63C61.4 233.2 60.6 225.2 60.6 216C60.6 206.4 61.4 198.4 63 192H93C91.4 185.2 90.6 177.2 90.6 168C90.6 158.4 91.4 150.4 93 144H123C121.4 137.2 120.6 129.2 120.6 120C120.6 110.4 121.4 102.4 123 96C121.4 89.2 120.6 81.2 120.6 72C120.6 62.4 121.4 54.4 123 48H39C40.6 54.4 41.4 62.4 41.4 72C41.4 81.2 40.6 89.2 39 96H3C1.4 89.2 0.600001 81.2 0.600001 72C0.600001 62.4 1.4 54.4 3 48H27C25.4 41.2 24.6 33.2 24.6 24C24.6 14.4 25.4 6.39999 27 -1.43051e-06H147C148.6 6.39999 149.4 14.4 149.4 24C149.4 33.2 148.6 41.2 147 48H171C172.6 54.4 173.4 62.4 173.4 72C173.4 81.2 172.6 89.2 171 96C172.6 102.4 173.4 110.4 173.4 120Z" fill="#474747"/>
</g>
</svg>
