<svg width="174" height="336" viewBox="0 0 174 336" fill="none" xmlns="http://www.w3.org/2000/svg">
<g style="mix-blend-mode:luminosity">
<path d="M173.4 120C173.4 129.2 172.6 137.2 171 144H147C148.6 150.4 149.4 158.4 149.4 168C149.4 177.2 148.6 185.2 147 192H171C172.6 198.4 173.4 206.4 173.4 216C173.4 225.2 172.6 233.2 171 240C172.6 246.4 173.4 254.4 173.4 264C173.4 273.2 172.6 281.2 171 288H147C148.6 294.4 149.4 302.4 149.4 312C149.4 321.2 148.6 329.2 147 336H27C25.4 329.2 24.6 321.2 24.6 312C24.6 302.4 25.4 294.4 27 288H3C1.4 281.2 0.600001 273.2 0.600001 264C0.600001 254.4 1.4 246.4 3 240H51C52.6 246.4 53.4 254.4 53.4 264C53.4 273.2 52.6 281.2 51 288H123C121.4 281.2 120.6 273.2 120.6 264C120.6 254.4 121.4 246.4 123 240C121.4 233.2 120.6 225.2 120.6 216C120.6 206.4 121.4 198.4 123 192H63C61.4 185.2 60.6 177.2 60.6 168C60.6 158.4 61.4 150.4 63 144H123C121.4 137.2 120.6 129.2 120.6 120C120.6 110.4 121.4 102.4 123 96C121.4 89.2 120.6 81.2 120.6 72C120.6 62.4 121.4 54.4 123 48H51C52.6 54.4 53.4 62.4 53.4 72C53.4 81.2 52.6 89.2 51 96H3C1.4 89.2 0.600001 81.2 0.600001 72C0.600001 62.4 1.4 54.4 3 48H27C25.4 41.2 24.6 33.2 24.6 24C24.6 14.4 25.4 6.39999 27 -1.43051e-06H147C148.6 6.39999 149.4 14.4 149.4 24C149.4 33.2 148.6 41.2 147 48H171C172.6 54.4 173.4 62.4 173.4 72C173.4 81.2 172.6 89.2 171 96C172.6 102.4 173.4 110.4 173.4 120Z" fill="#474747"/>
</g>
</svg>
