<svg width="198" height="336" viewBox="0 0 198 336" fill="none" xmlns="http://www.w3.org/2000/svg">
<g style="mix-blend-mode:luminosity">
<path d="M197.4 216C197.4 225.2 196.6 233.2 195 240H171C172.6 246.4 173.4 254.4 173.4 264C173.4 273.2 172.6 281.2 171 288C172.6 294.4 173.4 302.4 173.4 312C173.4 321.2 172.6 329.2 171 336H123C121.4 329.2 120.6 321.2 120.6 312C120.6 302.4 121.4 294.4 123 288C121.4 281.2 120.6 273.2 120.6 264C120.6 254.4 121.4 246.4 123 240H3C1.4 233.2 0.600001 225.2 0.600001 216C0.600001 206.4 1.4 198.4 3 192H21C19.4 185.2 18.6 177.2 18.6 168C18.6 158.4 19.4 150.4 21 144H39C37.4 137.2 36.6 129.2 36.6 120C36.6 110.4 37.4 102.4 39 96H57C55.4 89.2 54.6 81.2 54.6 72C54.6 62.4 55.4 54.4 57 48H87C88.6 54.4 89.4 62.4 89.4 72C89.4 81.2 88.6 89.2 87 96H69C70.6 102.4 71.4 110.4 71.4 120C71.4 129.2 70.6 137.2 69 144H51C52.6 150.4 53.4 158.4 53.4 168C53.4 177.2 52.6 185.2 51 192H123C121.4 185.2 120.6 177.2 120.6 168C120.6 158.4 121.4 150.4 123 144C121.4 137.2 120.6 129.2 120.6 120C120.6 110.4 121.4 102.4 123 96C121.4 89.2 120.6 81.2 120.6 72C120.6 62.4 121.4 54.4 123 48H87C85.4 41.2 84.6 33.2 84.6 24C84.6 14.4 85.4 6.39999 87 -1.43051e-06H171C172.6 6.39999 173.4 14.4 173.4 24C173.4 33.2 172.6 41.2 171 48C172.6 54.4 173.4 62.4 173.4 72C173.4 81.2 172.6 89.2 171 96C172.6 102.4 173.4 110.4 173.4 120C173.4 129.2 172.6 137.2 171 144C172.6 150.4 173.4 158.4 173.4 168C173.4 177.2 172.6 185.2 171 192H195C196.6 198.4 197.4 206.4 197.4 216Z" fill="#474747"/>
</g>
</svg>
