<svg width="186" height="336" viewBox="0 0 186 336" fill="none" xmlns="http://www.w3.org/2000/svg">
<g style="mix-blend-mode:luminosity">
<path d="M53.4 120C53.4 129.2 52.6 137.2 51 144H69C70.6 150.4 71.4 158.4 71.4 168C71.4 177.2 70.6 185.2 69 192H3C1.4 185.2 0.600001 177.2 0.600001 168C0.600001 158.4 1.4 150.4 3 144C1.4 137.2 0.600001 129.2 0.600001 120C0.600001 110.4 1.4 102.4 3 96C1.4 89.2 0.600001 81.2 0.600001 72C0.600001 62.4 1.4 54.4 3 48C1.4 41.2 0.600001 33.2 0.600001 24C0.600001 14.4 1.4 6.39999 3 -1.43051e-06H165C166.6 6.39999 167.4 14.4 167.4 24C167.4 33.2 166.6 41.2 165 48H51C52.6 54.4 53.4 62.4 53.4 72C53.4 81.2 52.6 89.2 51 96C52.6 102.4 53.4 110.4 53.4 120ZM185.4 216C185.4 225.2 184.6 233.2 183 240H165C166.6 246.4 167.4 254.4 167.4 264C167.4 273.2 166.6 281.2 165 288H135C136.6 294.4 137.4 302.4 137.4 312C137.4 321.2 136.6 329.2 135 336H27C25.4 329.2 24.6 321.2 24.6 312C24.6 302.4 25.4 294.4 27 288H3C1.4 281.2 0.600001 273.2 0.600001 264C0.600001 254.4 1.4 246.4 3 240H39C40.6 246.4 41.4 254.4 41.4 264C41.4 273.2 40.6 281.2 39 288H117C115.4 281.2 114.6 273.2 114.6 264C114.6 254.4 115.4 246.4 117 240H135C133.4 233.2 132.6 225.2 132.6 216C132.6 206.4 133.4 198.4 135 192H117C115.4 185.2 114.6 177.2 114.6 168C114.6 158.4 115.4 150.4 117 144H69C67.4 137.2 66.6 129.2 66.6 120C66.6 110.4 67.4 102.4 69 96H135C136.6 102.4 137.4 110.4 137.4 120C137.4 129.2 136.6 137.2 135 144H165C166.6 150.4 167.4 158.4 167.4 168C167.4 177.2 166.6 185.2 165 192H183C184.6 198.4 185.4 206.4 185.4 216Z" fill="#474747"/>
</g>
</svg>
