<svg width="85" height="91" viewBox="0 0 85 91" fill="none" xmlns="http://www.w3.org/2000/svg">
<rect width="3" height="3" transform="matrix(-0.00603288 0.999982 0.999982 0.00603288 0.126709 0)" fill="#FF0000"/>
<rect width="3" height="3" transform="matrix(-0.00603288 0.999982 0.999982 0.00603288 3.12671 0.0180664)" fill="#FF0000"/>
<rect width="3" height="3" transform="matrix(-0.00603288 0.999982 0.999982 0.00603288 3.10864 3.01807)" fill="#FF0000"/>
<rect width="3" height="3" transform="matrix(-0.00603288 0.999982 0.999982 0.00603288 6.1084 3.03613)" fill="#FF0000"/>
<rect width="3" height="3" transform="matrix(-0.00603288 0.999982 0.999982 0.00603288 6.09033 6.03613)" fill="#FF0000"/>
<rect width="3" height="3" transform="matrix(-0.00603288 0.999982 0.999982 0.00603288 9.09033 6.0542)" fill="#FF0000"/>
<rect width="3" height="3" transform="matrix(-0.00603288 0.999982 0.999982 0.00603288 9.07227 9.05408)" fill="#FF0000"/>
<rect width="3" height="3" transform="matrix(-0.00603288 0.999982 0.999982 0.00603288 12.0723 9.07227)" fill="#FF0000"/>
<rect width="3" height="3" transform="matrix(-0.00603288 0.999982 0.999982 0.00603288 6.0542 12.036)" fill="#FF0000"/>
<rect width="3" height="3" transform="matrix(-0.00603288 0.999982 0.999982 0.00603288 9.0542 12.0541)" fill="#FF0000"/>
<rect width="3" height="3" transform="matrix(-0.00603288 0.999982 0.999982 0.00603288 3.03613 15.0178)" fill="#FF0000"/>
<rect width="3" height="3" transform="matrix(-0.00603288 0.999982 0.999982 0.00603288 6.03613 15.0359)" fill="#FF0000"/>
<rect width="3" height="3" transform="matrix(-0.00603288 0.999982 0.999982 0.00603288 0.0180664 17.9996)" fill="#FF0000"/>
<rect width="3" height="3" transform="matrix(-0.00603288 0.999982 0.999982 0.00603288 3.01807 18.0178)" fill="#FF0000"/>
<rect width="3" height="3" transform="matrix(-0.264642 0.964347 0.964347 0.264642 21.0908 1.54309)" fill="#FF0000"/>
<rect width="3" height="3" transform="matrix(-0.264642 0.964347 0.964347 0.264642 23.9839 2.33704)" fill="#FF0000"/>
<rect width="3" height="3" transform="matrix(-0.264642 0.964347 0.964347 0.264642 23.1899 5.2301)" fill="#FF0000"/>
<rect width="3" height="3" transform="matrix(-0.264642 0.964347 0.964347 0.264642 26.083 6.02393)" fill="#FF0000"/>
<rect width="3" height="3" transform="matrix(-0.264642 0.964347 0.964347 0.264642 25.2891 8.91699)" fill="#FF0000"/>
<rect width="3" height="3" transform="matrix(-0.264642 0.964347 0.964347 0.264642 28.1821 9.71094)" fill="#FF0000"/>
<rect width="3" height="3" transform="matrix(-0.264642 0.964347 0.964347 0.264642 27.3882 12.604)" fill="#FF0000"/>
<rect width="3" height="3" transform="matrix(-0.264642 0.964347 0.964347 0.264642 30.2812 13.3979)" fill="#FF0000"/>
<rect width="3" height="3" transform="matrix(-0.264642 0.964347 0.964347 0.264642 23.7012 14.7031)" fill="#FF0000"/>
<rect width="3" height="3" transform="matrix(-0.264642 0.964347 0.964347 0.264642 26.5942 15.4971)" fill="#FF0000"/>
<rect width="3" height="3" transform="matrix(-0.264642 0.964347 0.964347 0.264642 20.0142 16.8022)" fill="#FF0000"/>
<rect width="3" height="3" transform="matrix(-0.264642 0.964347 0.964347 0.264642 22.9072 17.5962)" fill="#FF0000"/>
<rect width="3" height="3" transform="matrix(-0.264642 0.964347 0.964347 0.264642 16.3271 18.9014)" fill="#FF0000"/>
<rect width="3" height="3" transform="matrix(-0.264642 0.964347 0.964347 0.264642 19.2202 19.6953)" fill="#FF0000"/>
<rect width="3" height="3" transform="matrix(-0.505216 0.862993 0.862993 0.505216 41.5771 8.25024)" fill="#FF0000"/>
<rect width="3" height="3" transform="matrix(-0.505216 0.862993 0.862993 0.505216 44.166 9.76587)" fill="#FF0000"/>
<rect width="3" height="3" transform="matrix(-0.505216 0.862993 0.862993 0.505216 42.6504 12.3549)" fill="#FF0000"/>
<rect width="3" height="3" transform="matrix(-0.505216 0.862993 0.862993 0.505216 45.2393 13.8705)" fill="#FF0000"/>
<rect width="3" height="3" transform="matrix(-0.505216 0.862993 0.862993 0.505216 43.7236 16.4594)" fill="#FF0000"/>
<rect width="3" height="3" transform="matrix(-0.505216 0.862993 0.862993 0.505216 46.313 17.975)" fill="#FF0000"/>
<rect width="3" height="3" transform="matrix(-0.505216 0.862993 0.862993 0.505216 44.7974 20.5641)" fill="#FF0000"/>
<rect width="3" height="3" transform="matrix(-0.505216 0.862993 0.862993 0.505216 47.3862 22.0797)" fill="#FF0000"/>
<rect width="3" height="3" transform="matrix(-0.505216 0.862993 0.862993 0.505216 40.6924 21.6375)" fill="#FF0000"/>
<rect width="3" height="3" transform="matrix(-0.505216 0.862993 0.862993 0.505216 43.2817 23.1531)" fill="#FF0000"/>
<rect width="3" height="3" transform="matrix(-0.505216 0.862993 0.862993 0.505216 36.5879 22.7108)" fill="#FF0000"/>
<rect width="3" height="3" transform="matrix(-0.505216 0.862993 0.862993 0.505216 39.1768 24.2264)" fill="#FF0000"/>
<rect width="3" height="3" transform="matrix(-0.505216 0.862993 0.862993 0.505216 32.4834 23.7842)" fill="#FF0000"/>
<rect width="3" height="3" transform="matrix(-0.505216 0.862993 0.862993 0.505216 35.0723 25.2998)" fill="#FF0000"/>
<rect width="3" height="3" transform="matrix(-0.71136 0.702828 0.702828 0.71136 58.854 20.3546)" fill="#FF0000"/>
<rect width="3" height="3" transform="matrix(-0.71136 0.702828 0.702828 0.71136 60.9624 22.4886)" fill="#FF0000"/>
<rect width="3" height="3" transform="matrix(-0.71136 0.702828 0.702828 0.71136 58.8286 24.5972)" fill="#FF0000"/>
<rect width="3" height="3" transform="matrix(-0.71136 0.702828 0.702828 0.71136 60.937 26.7312)" fill="#FF0000"/>
<rect width="3" height="3" transform="matrix(-0.71136 0.702828 0.702828 0.71136 58.8027 28.8397)" fill="#FF0000"/>
<rect width="3" height="3" transform="matrix(-0.71136 0.702828 0.702828 0.71136 60.9111 30.9739)" fill="#FF0000"/>
<rect width="3" height="3" transform="matrix(-0.71136 0.702828 0.702828 0.71136 58.7773 33.0823)" fill="#FF0000"/>
<rect width="3" height="3" transform="matrix(-0.71136 0.702828 0.702828 0.71136 60.8857 35.2164)" fill="#FF0000"/>
<rect width="3" height="3" transform="matrix(-0.71136 0.702828 0.702828 0.71136 54.5347 33.0568)" fill="#FF0000"/>
<rect width="3" height="3" transform="matrix(-0.71136 0.702828 0.702828 0.71136 56.6431 35.1908)" fill="#FF0000"/>
<rect width="3" height="3" transform="matrix(-0.71136 0.702828 0.702828 0.71136 50.292 33.0311)" fill="#FF0000"/>
<rect width="3" height="3" transform="matrix(-0.71136 0.702828 0.702828 0.71136 52.4004 35.1652)" fill="#FF0000"/>
<rect width="3" height="3" transform="matrix(-0.71136 0.702828 0.702828 0.71136 46.0493 33.0055)" fill="#FF0000"/>
<rect width="3" height="3" transform="matrix(-0.71136 0.702828 0.702828 0.71136 48.1582 35.1395)" fill="#FF0000"/>
<rect width="3" height="3" transform="matrix(-0.869026 0.494766 0.494766 0.869026 72.0947 36.4174)" fill="#FF0000"/>
<rect width="3" height="3" transform="matrix(-0.869026 0.494766 0.494766 0.869026 73.5791 39.0244)" fill="#FF0000"/>
<rect width="3" height="3" transform="matrix(-0.869026 0.494766 0.494766 0.869026 70.9722 40.5088)" fill="#FF0000"/>
<rect width="3" height="3" transform="matrix(-0.869026 0.494766 0.494766 0.869026 72.4561 43.1158)" fill="#FF0000"/>
<rect width="3" height="3" transform="matrix(-0.869026 0.494766 0.494766 0.869026 69.8491 44.6001)" fill="#FF0000"/>
<rect width="3" height="3" transform="matrix(-0.869026 0.494766 0.494766 0.869026 71.3335 47.2072)" fill="#FF0000"/>
<rect width="3" height="3" transform="matrix(-0.869026 0.494766 0.494766 0.869026 68.7266 48.6915)" fill="#FF0000"/>
<rect width="3" height="3" transform="matrix(-0.869026 0.494766 0.494766 0.869026 70.2104 51.2986)" fill="#FF0000"/>
<rect width="3" height="3" transform="matrix(-0.869026 0.494766 0.494766 0.869026 64.6353 47.5687)" fill="#FF0000"/>
<rect width="3" height="3" transform="matrix(-0.869026 0.494766 0.494766 0.869026 66.1191 50.1758)" fill="#FF0000"/>
<rect width="3" height="3" transform="matrix(-0.869026 0.494766 0.494766 0.869026 60.5435 46.4459)" fill="#FF0000"/>
<rect width="3" height="3" transform="matrix(-0.869026 0.494766 0.494766 0.869026 62.0278 49.053)" fill="#FF0000"/>
<rect width="3" height="3" transform="matrix(-0.869026 0.494766 0.494766 0.869026 56.4521 45.3231)" fill="#FF0000"/>
<rect width="3" height="3" transform="matrix(-0.869026 0.494766 0.494766 0.869026 57.9365 47.9301)" fill="#FF0000"/>
<rect width="3" height="3" transform="matrix(-0.96747 0.252987 0.252987 0.96747 81.0776 55.4894)" fill="#FF0000"/>
<rect width="3" height="3" transform="matrix(-0.96747 0.252987 0.252987 0.96747 81.8364 58.3918)" fill="#FF0000"/>
<rect width="3" height="3" transform="matrix(-0.96747 0.252987 0.252987 0.96747 78.9341 59.1508)" fill="#FF0000"/>
<rect width="3" height="3" transform="matrix(-0.96747 0.252987 0.252987 0.96747 79.6934 62.0531)" fill="#FF0000"/>
<rect width="3" height="3" transform="matrix(-0.96747 0.252987 0.252987 0.96747 76.7905 62.8121)" fill="#FF0000"/>
<rect width="3" height="3" transform="matrix(-0.96747 0.252987 0.252987 0.96747 77.5498 65.7145)" fill="#FF0000"/>
<rect width="3" height="3" transform="matrix(-0.96747 0.252987 0.252987 0.96747 74.6475 66.4735)" fill="#FF0000"/>
<rect width="3" height="3" transform="matrix(-0.96747 0.252987 0.252987 0.96747 75.4062 69.3759)" fill="#FF0000"/>
<rect width="3" height="3" transform="matrix(-0.96747 0.252987 0.252987 0.96747 70.9858 64.3301)" fill="#FF0000"/>
<rect width="3" height="3" transform="matrix(-0.96747 0.252987 0.252987 0.96747 71.7451 67.2324)" fill="#FF0000"/>
<rect width="3" height="3" transform="matrix(-0.96747 0.252987 0.252987 0.96747 67.3247 62.1866)" fill="#FF0000"/>
<rect width="3" height="3" transform="matrix(-0.96747 0.252987 0.252987 0.96747 68.0835 65.089)" fill="#FF0000"/>
<rect width="3" height="3" transform="matrix(-0.96747 0.252987 0.252987 0.96747 63.6631 60.0431)" fill="#FF0000"/>
<rect width="3" height="3" transform="matrix(-0.96747 0.252987 0.252987 0.96747 64.4224 62.9454)" fill="#FF0000"/>
<rect width="3" height="3" transform="matrix(-0.999982 -0.00603292 -0.00603292 0.999982 83.2559 75.5029)" fill="#FF0000"/>
<rect width="3" height="3" transform="matrix(-0.999982 -0.00603292 -0.00603292 0.999982 83.2378 78.5029)" fill="#FF0000"/>
<rect width="3" height="3" transform="matrix(-0.999982 -0.00603292 -0.00603292 0.999982 80.2378 78.4847)" fill="#FF0000"/>
<rect width="3" height="3" transform="matrix(-0.999982 -0.00603292 -0.00603292 0.999982 80.2197 81.4847)" fill="#FF0000"/>
<rect width="3" height="3" transform="matrix(-0.999982 -0.00603292 -0.00603292 0.999982 77.2197 81.4667)" fill="#FF0000"/>
<rect width="3" height="3" transform="matrix(-0.999982 -0.00603292 -0.00603292 0.999982 77.2017 84.4666)" fill="#FF0000"/>
<rect width="3" height="3" transform="matrix(-0.999982 -0.00603292 -0.00603292 0.999982 74.2017 84.4485)" fill="#FF0000"/>
<rect width="3" height="3" transform="matrix(-0.999982 -0.00603292 -0.00603292 0.999982 74.1836 87.4484)" fill="#FF0000"/>
<rect width="3" height="3" transform="matrix(-0.999982 -0.00603292 -0.00603292 0.999982 71.2197 81.4304)" fill="#FF0000"/>
<rect width="3" height="3" transform="matrix(-0.999982 -0.00603292 -0.00603292 0.999982 71.2017 84.4304)" fill="#FF0000"/>
<rect width="3" height="3" transform="matrix(-0.999982 -0.00603292 -0.00603292 0.999982 68.2378 78.4124)" fill="#FF0000"/>
<rect width="3" height="3" transform="matrix(-0.999982 -0.00603292 -0.00603292 0.999982 68.2197 81.4124)" fill="#FF0000"/>
<rect width="3" height="3" transform="matrix(-0.999982 -0.00603292 -0.00603292 0.999982 65.2563 75.3943)" fill="#FF0000"/>
<rect width="3" height="3" transform="matrix(-0.999982 -0.00603292 -0.00603292 0.999982 65.2383 78.3942)" fill="#FF0000"/>
</svg>
