<svg width="91" height="86" viewBox="0 0 91 86" fill="none" xmlns="http://www.w3.org/2000/svg">
<rect width="3.01667" height="3.01667" transform="matrix(1 0 0 -1 0 85.6399)" fill="#FF0000"/>
<rect width="3.01667" height="3.01667" transform="matrix(1 0 0 -1 0 82.6233)" fill="#FF0000"/>
<rect width="3.01667" height="3.01667" transform="matrix(1 0 0 -1 3.0166 82.6233)" fill="#FF0000"/>
<rect width="3.01667" height="3.01667" transform="matrix(1 0 0 -1 3.0166 79.6064)" fill="#FF0000"/>
<rect width="3.01667" height="3.01667" transform="matrix(1 0 0 -1 6.0332 79.6064)" fill="#FF0000"/>
<rect width="3.01667" height="3.01667" transform="matrix(1 0 0 -1 6.0332 76.5898)" fill="#FF0000"/>
<rect width="3.01667" height="3.01667" transform="matrix(1 0 0 -1 9.0498 76.5898)" fill="#FF0000"/>
<rect width="3.01667" height="3.01667" transform="matrix(1 0 0 -1 9.0498 73.5732)" fill="#FF0000"/>
<rect width="3.01667" height="3.01667" transform="matrix(1 0 0 -1 12.0669 79.6064)" fill="#FF0000"/>
<rect width="3.01667" height="3.01667" transform="matrix(1 0 0 -1 12.0669 76.5898)" fill="#FF0000"/>
<rect width="3.01667" height="3.01667" transform="matrix(1 0 0 -1 15.0835 82.6233)" fill="#FF0000"/>
<rect width="3.01667" height="3.01667" transform="matrix(1 0 0 -1 15.0835 79.6064)" fill="#FF0000"/>
<rect width="3.01667" height="3.01667" transform="matrix(1 0 0 -1 18.1001 85.6399)" fill="#FF0000"/>
<rect width="3.01667" height="3.01667" transform="matrix(1 0 0 -1 18.1001 82.6233)" fill="#FF0000"/>
<rect width="3.01667" height="3.01667" transform="matrix(0.965926 0.258819 0.258819 -0.965926 1.42432 64.5503)" fill="#FF0000"/>
<rect width="3.01667" height="3.01667" transform="matrix(0.965926 0.258819 0.258819 -0.965926 2.20508 61.6365)" fill="#FF0000"/>
<rect width="3.01667" height="3.01667" transform="matrix(0.965926 0.258819 0.258819 -0.965926 5.11914 62.4172)" fill="#FF0000"/>
<rect width="3.01667" height="3.01667" transform="matrix(0.965926 0.258819 0.258819 -0.965926 5.8999 59.5034)" fill="#FF0000"/>
<rect width="3.01667" height="3.01667" transform="matrix(0.965926 0.258819 0.258819 -0.965926 8.81348 60.2842)" fill="#FF0000"/>
<rect width="3.01667" height="3.01667" transform="matrix(0.965926 0.258819 0.258819 -0.965926 9.59473 57.3701)" fill="#FF0000"/>
<rect width="3.01667" height="3.01667" transform="matrix(0.965926 0.258819 0.258819 -0.965926 12.5083 58.1509)" fill="#FF0000"/>
<rect width="3.01667" height="3.01667" transform="matrix(0.965926 0.258819 0.258819 -0.965926 13.2891 55.2371)" fill="#FF0000"/>
<rect width="3.01667" height="3.01667" transform="matrix(0.965926 0.258819 0.258819 -0.965926 14.6416 61.8457)" fill="#FF0000"/>
<rect width="3.01667" height="3.01667" transform="matrix(0.965926 0.258819 0.258819 -0.965926 15.4219 58.9316)" fill="#FF0000"/>
<rect width="3.01667" height="3.01667" transform="matrix(0.965926 0.258819 0.258819 -0.965926 16.7744 65.5403)" fill="#FF0000"/>
<rect width="3.01667" height="3.01667" transform="matrix(0.965926 0.258819 0.258819 -0.965926 17.5552 62.6265)" fill="#FF0000"/>
<rect width="3.01667" height="3.01667" transform="matrix(0.965926 0.258819 0.258819 -0.965926 18.9077 69.2349)" fill="#FF0000"/>
<rect width="3.01667" height="3.01667" transform="matrix(0.965926 0.258819 0.258819 -0.965926 19.6885 66.321)" fill="#FF0000"/>
<rect width="3.01667" height="3.01667" transform="matrix(0.866025 0.5 0.5 -0.866025 8.04443 43.9094)" fill="#FF0000"/>
<rect width="3.01667" height="3.01667" transform="matrix(0.866025 0.5 0.5 -0.866025 9.55273 41.2969)" fill="#FF0000"/>
<rect width="3.01667" height="3.01667" transform="matrix(0.866025 0.5 0.5 -0.866025 12.1655 42.8052)" fill="#FF0000"/>
<rect width="3.01667" height="3.01667" transform="matrix(0.866025 0.5 0.5 -0.866025 13.6738 40.1926)" fill="#FF0000"/>
<rect width="3.01667" height="3.01667" transform="matrix(0.866025 0.5 0.5 -0.866025 16.2861 41.7009)" fill="#FF0000"/>
<rect width="3.01667" height="3.01667" transform="matrix(0.866025 0.5 0.5 -0.866025 17.7944 39.0886)" fill="#FF0000"/>
<rect width="3.01667" height="3.01667" transform="matrix(0.866025 0.5 0.5 -0.866025 20.4067 40.5969)" fill="#FF0000"/>
<rect width="3.01667" height="3.01667" transform="matrix(0.866025 0.5 0.5 -0.866025 21.915 37.9844)" fill="#FF0000"/>
<rect width="3.01667" height="3.01667" transform="matrix(0.866025 0.5 0.5 -0.866025 21.5112 44.7178)" fill="#FF0000"/>
<rect width="3.01667" height="3.01667" transform="matrix(0.866025 0.5 0.5 -0.866025 23.0195 42.1052)" fill="#FF0000"/>
<rect width="3.01667" height="3.01667" transform="matrix(0.866025 0.5 0.5 -0.866025 22.6152 48.8386)" fill="#FF0000"/>
<rect width="3.01667" height="3.01667" transform="matrix(0.866025 0.5 0.5 -0.866025 24.1235 46.2261)" fill="#FF0000"/>
<rect width="3.01667" height="3.01667" transform="matrix(0.866025 0.5 0.5 -0.866025 23.7192 52.9595)" fill="#FF0000"/>
<rect width="3.01667" height="3.01667" transform="matrix(0.866025 0.5 0.5 -0.866025 25.2275 50.3469)" fill="#FF0000"/>
<rect width="3.01667" height="3.01667" transform="matrix(0.707107 0.707107 0.707107 -0.707107 20.1113 26.4636)" fill="#FF0000"/>
<rect width="3.01667" height="3.01667" transform="matrix(0.707107 0.707107 0.707107 -0.707107 22.2446 24.3306)" fill="#FF0000"/>
<rect width="3.01667" height="3.01667" transform="matrix(0.707107 0.707107 0.707107 -0.707107 24.3774 26.4636)" fill="#FF0000"/>
<rect width="3.01667" height="3.01667" transform="matrix(0.707107 0.707107 0.707107 -0.707107 26.5107 24.3306)" fill="#FF0000"/>
<rect width="3.01667" height="3.01667" transform="matrix(0.707107 0.707107 0.707107 -0.707107 28.644 26.4636)" fill="#FF0000"/>
<rect width="3.01667" height="3.01667" transform="matrix(0.707107 0.707107 0.707107 -0.707107 30.7769 24.3306)" fill="#FF0000"/>
<rect width="3.01667" height="3.01667" transform="matrix(0.707107 0.707107 0.707107 -0.707107 32.9102 26.4636)" fill="#FF0000"/>
<rect width="3.01667" height="3.01667" transform="matrix(0.707107 0.707107 0.707107 -0.707107 35.043 24.3306)" fill="#FF0000"/>
<rect width="3.01667" height="3.01667" transform="matrix(0.707107 0.707107 0.707107 -0.707107 32.9102 30.7297)" fill="#FF0000"/>
<rect width="3.01667" height="3.01667" transform="matrix(0.707107 0.707107 0.707107 -0.707107 35.043 28.5967)" fill="#FF0000"/>
<rect width="3.01667" height="3.01667" transform="matrix(0.707107 0.707107 0.707107 -0.707107 32.9102 34.9961)" fill="#FF0000"/>
<rect width="3.01667" height="3.01667" transform="matrix(0.707107 0.707107 0.707107 -0.707107 35.043 32.863)" fill="#FF0000"/>
<rect width="3.01667" height="3.01667" transform="matrix(0.707107 0.707107 0.707107 -0.707107 32.9102 39.2622)" fill="#FF0000"/>
<rect width="3.01667" height="3.01667" transform="matrix(0.707107 0.707107 0.707107 -0.707107 35.043 37.1292)" fill="#FF0000"/>
<rect width="3.01667" height="3.01667" transform="matrix(0.5 0.866025 0.866025 -0.5 36.1826 13.0522)" fill="#FF0000"/>
<rect width="3.01667" height="3.01667" transform="matrix(0.5 0.866025 0.866025 -0.5 38.7949 11.5439)" fill="#FF0000"/>
<rect width="3.01667" height="3.01667" transform="matrix(0.5 0.866025 0.866025 -0.5 40.3037 14.1565)" fill="#FF0000"/>
<rect width="3.01667" height="3.01667" transform="matrix(0.5 0.866025 0.866025 -0.5 42.916 12.6482)" fill="#FF0000"/>
<rect width="3.01667" height="3.01667" transform="matrix(0.5 0.866025 0.866025 -0.5 44.4243 15.2607)" fill="#FF0000"/>
<rect width="3.01667" height="3.01667" transform="matrix(0.5 0.866025 0.866025 -0.5 47.0366 13.7522)" fill="#FF0000"/>
<rect width="3.01667" height="3.01667" transform="matrix(0.5 0.866025 0.866025 -0.5 48.5449 16.3647)" fill="#FF0000"/>
<rect width="3.01667" height="3.01667" transform="matrix(0.5 0.866025 0.866025 -0.5 51.1577 14.8564)" fill="#FF0000"/>
<rect width="3.01667" height="3.01667" transform="matrix(0.5 0.866025 0.866025 -0.5 47.4409 20.4856)" fill="#FF0000"/>
<rect width="3.01667" height="3.01667" transform="matrix(0.5 0.866025 0.866025 -0.5 50.0532 18.9773)" fill="#FF0000"/>
<rect width="3.01667" height="3.01667" transform="matrix(0.5 0.866025 0.866025 -0.5 46.3369 24.6064)" fill="#FF0000"/>
<rect width="3.01667" height="3.01667" transform="matrix(0.5 0.866025 0.866025 -0.5 48.9492 23.0981)" fill="#FF0000"/>
<rect width="3.01667" height="3.01667" transform="matrix(0.5 0.866025 0.866025 -0.5 45.2324 28.7273)" fill="#FF0000"/>
<rect width="3.01667" height="3.01667" transform="matrix(0.5 0.866025 0.866025 -0.5 47.8447 27.219)" fill="#FF0000"/>
<rect width="3.01667" height="3.01667" transform="matrix(0.258819 0.965926 0.965926 -0.258819 55.3052 3.90381)" fill="#FF0000"/>
<rect width="3.01667" height="3.01667" transform="matrix(0.258819 0.965926 0.965926 -0.258819 58.2192 3.12305)" fill="#FF0000"/>
<rect width="3.01667" height="3.01667" transform="matrix(0.258819 0.965926 0.965926 -0.258819 59 6.03687)" fill="#FF0000"/>
<rect width="3.01667" height="3.01667" transform="matrix(0.258819 0.965926 0.965926 -0.258819 61.9136 5.2561)" fill="#FF0000"/>
<rect width="3.01667" height="3.01667" transform="matrix(0.258819 0.965926 0.965926 -0.258819 62.6943 8.16992)" fill="#FF0000"/>
<rect width="3.01667" height="3.01667" transform="matrix(0.258819 0.965926 0.965926 -0.258819 65.6084 7.38916)" fill="#FF0000"/>
<rect width="3.01667" height="3.01667" transform="matrix(0.258819 0.965926 0.965926 -0.258819 66.3892 10.3032)" fill="#FF0000"/>
<rect width="3.01667" height="3.01667" transform="matrix(0.258819 0.965926 0.965926 -0.258819 69.3027 9.52246)" fill="#FF0000"/>
<rect width="3.01667" height="3.01667" transform="matrix(0.258819 0.965926 0.965926 -0.258819 64.2559 13.9978)" fill="#FF0000"/>
<rect width="3.01667" height="3.01667" transform="matrix(0.258819 0.965926 0.965926 -0.258819 67.1699 13.217)" fill="#FF0000"/>
<rect width="3.01667" height="3.01667" transform="matrix(0.258819 0.965926 0.965926 -0.258819 62.123 17.6924)" fill="#FF0000"/>
<rect width="3.01667" height="3.01667" transform="matrix(0.258819 0.965926 0.965926 -0.258819 65.0366 16.9116)" fill="#FF0000"/>
<rect width="3.01667" height="3.01667" transform="matrix(0.258819 0.965926 0.965926 -0.258819 59.9897 21.387)" fill="#FF0000"/>
<rect width="3.01667" height="3.01667" transform="matrix(0.258819 0.965926 0.965926 -0.258819 62.9038 20.6062)" fill="#FF0000"/>
<rect width="3.01667" height="3.01667" transform="matrix(-4.37114e-08 1 1 4.37114e-08 75.4165 1.59229)" fill="#FF0000"/>
<rect width="3.01667" height="3.01667" transform="matrix(-4.37114e-08 1 1 4.37114e-08 78.4331 1.59229)" fill="#FF0000"/>
<rect width="3.01667" height="3.01667" transform="matrix(-4.37114e-08 1 1 4.37114e-08 78.4331 4.60889)" fill="#FF0000"/>
<rect width="3.01667" height="3.01667" transform="matrix(-4.37114e-08 1 1 4.37114e-08 81.4497 4.60889)" fill="#FF0000"/>
<rect width="3.01667" height="3.01667" transform="matrix(-4.37114e-08 1 1 4.37114e-08 81.4497 7.62573)" fill="#FF0000"/>
<rect width="3.01667" height="3.01667" transform="matrix(-4.37114e-08 1 1 4.37114e-08 84.4663 7.62573)" fill="#FF0000"/>
<rect width="3.01667" height="3.01667" transform="matrix(-4.37114e-08 1 1 4.37114e-08 84.4663 10.6423)" fill="#FF0000"/>
<rect width="3.01667" height="3.01667" transform="matrix(-4.37114e-08 1 1 4.37114e-08 87.4829 10.6423)" fill="#FF0000"/>
<rect width="3.01667" height="3.01667" transform="matrix(-4.37114e-08 1 1 4.37114e-08 81.4497 13.6589)" fill="#FF0000"/>
<rect width="3.01667" height="3.01667" transform="matrix(-4.37114e-08 1 1 4.37114e-08 84.4663 13.6589)" fill="#FF0000"/>
<rect width="3.01667" height="3.01667" transform="matrix(-4.37114e-08 1 1 4.37114e-08 78.4331 16.6755)" fill="#FF0000"/>
<rect width="3.01667" height="3.01667" transform="matrix(-4.37114e-08 1 1 4.37114e-08 81.4497 16.6755)" fill="#FF0000"/>
<rect width="3.01667" height="3.01667" transform="matrix(-4.37114e-08 1 1 4.37114e-08 75.4165 19.6924)" fill="#FF0000"/>
<rect width="3.01667" height="3.01667" transform="matrix(-4.37114e-08 1 1 4.37114e-08 78.4331 19.6921)" fill="#FF0000"/>
</svg>
