<svg width="28" height="28" viewBox="0 0 28 28" fill="none" xmlns="http://www.w3.org/2000/svg">
<path d="M16.1301 16.617H11.8151C11.5701 16.617 11.3711 16.418 11.3711 16.173V11.858C11.3711 11.613 11.5701 11.414 11.8151 11.414H16.1301C16.3751 11.414 16.5741 11.613 16.5741 11.858V16.173C16.5741 16.419 16.3751 16.617 16.1301 16.617Z" fill="#2B63F6"/>
<path d="M14 6C18.411 6 22 9.589 22 14C22 18.411 18.411 22 14 22C9.589 22 6 18.411 6 14C6 9.589 9.589 6 14 6ZM14 0C6.268 0 0 6.268 0 14C0 21.732 6.268 28 14 28C21.732 28 28 21.732 28 14C28 6.268 21.732 0 14 0Z" fill="#2B63F6"/>
</svg>
