<svg width="52" height="66" viewBox="0 0 52 66" fill="none" xmlns="http://www.w3.org/2000/svg">
<g clip-path="url(#clip0_1382_1463)">
<path d="M4.68804 45.6577C2.5127 45.6577 0.753906 47.4196 0.753906 49.5987C0.753906 51.7778 2.5127 53.5397 4.68804 53.5397V45.6577Z" fill="#C800FF"/>
<path d="M4.68625 52.7978C2.92746 52.7978 1.50423 51.3605 1.50423 49.6102C1.50423 47.86 2.93903 46.4227 4.68625 46.4227V44.9158C2.10592 44.9042 0 47.0138 0 49.5986C0 52.1835 2.10592 54.2931 4.68625 54.2931V52.7978Z" fill="#C4C4C4"/>
<path d="M41.7702 66H14.428C8.7929 66 4.19922 61.4099 4.19922 55.7534V10.2466C4.21079 4.5901 8.7929 0 14.428 0H33.5895C33.7862 0 33.9829 0.081138 34.1218 0.220232L51.7675 17.8967C51.9064 18.0358 51.9874 18.2329 51.9874 18.4299V55.7534C51.999 61.3983 47.4168 66 41.7702 66ZM14.428 1.50685C9.62601 1.50685 5.70345 5.42466 5.70345 10.2466V55.7534C5.70345 60.5638 9.61444 64.4931 14.428 64.4931H41.7702C46.5722 64.4931 50.4947 60.5753 50.4947 55.7534V18.7429L33.2887 1.50685H14.428Z" fill="#C4C4C4"/>
<path d="M51.2494 19.1833H37.3642C34.8765 19.1833 32.8516 17.1548 32.8516 14.6628V0.753373C32.8516 0.452003 33.0367 0.173816 33.3144 0.0579041C33.5921 -0.0580074 33.9161 -5.1655e-05 34.1359 0.22018L51.747 17.8619C51.909 18.001 52.0015 18.198 52.0015 18.4299C52.0015 18.8472 51.666 19.1833 51.2494 19.1833ZM34.3558 2.57318V14.6628C34.3558 16.3319 35.7096 17.6764 37.3642 17.6764H49.4328L34.3558 2.57318Z" fill="#C4C4C4"/>
<path d="M5.04748 26.8452C2.71014 26.8452 0.8125 28.7462 0.8125 31.0876V48.8568H0.893497C1.27534 46.8979 2.98784 45.4258 5.04748 45.4258H47.7097V26.8452H5.04748Z" fill="#C800FF"/>
<path d="M0.891705 49.6102H0.810708C0.394152 49.6102 0.0585938 49.2741 0.0585938 48.8568V31.0876C0.0585938 28.3289 2.29179 26.0918 5.04569 26.0918H47.7079C48.1245 26.0918 48.46 26.4279 48.46 26.8452V45.4258C48.46 45.8431 48.1245 46.1793 47.7079 46.1793H5.04569C3.37947 46.1793 1.94466 47.3616 1.62068 49.0075C1.56282 49.3552 1.25041 49.6102 0.891705 49.6102ZM5.04569 27.5986C3.1249 27.5986 1.56282 29.1635 1.56282 31.0876V46.0865C2.46536 45.2056 3.70345 44.6608 5.04569 44.6608H46.9558V27.5986H5.04569Z" fill="#C4C4C4"/>
<path d="M5.23047 31.6439C5.23047 31.3309 5.48503 31.0759 5.78588 31.0759H8.69019C11.8259 31.0759 13.9897 33.2319 13.9897 36.0369V36.0601C13.9897 38.8652 11.8259 41.0559 8.69019 41.0559H5.78588C5.48503 41.0559 5.23047 40.8009 5.23047 40.4879V31.6439ZM8.69019 40.0243C11.2127 40.0243 12.821 38.3088 12.821 36.0949V36.0717C12.821 33.8578 11.2127 32.1191 8.69019 32.1191H6.35285V40.0243H8.69019Z" fill="white"/>
<path d="M15.3438 36.1064V36.0832C15.3438 33.3245 17.4034 30.9136 20.4466 30.9136C23.4782 30.9136 25.5146 33.3013 25.5146 36.0485V36.0716C25.5146 38.8303 23.455 41.2413 20.4118 41.2413C17.3802 41.2413 15.3438 38.8535 15.3438 36.1064ZM24.346 36.1064V36.0832C24.346 33.8114 22.6913 31.9568 20.4118 31.9568C18.1324 31.9568 16.5124 33.7882 16.5124 36.0485V36.0716C16.5124 38.3435 18.1671 40.1981 20.4466 40.1981C22.726 40.1981 24.346 38.3667 24.346 36.1064Z" fill="white"/>
<path d="M26.8789 36.1064V36.0832C26.8789 33.255 28.9848 30.9136 31.9239 30.9136C33.5322 30.9136 34.562 31.4468 35.4877 32.2118C35.6034 32.3161 35.7191 32.4668 35.7191 32.6638C35.7191 32.9652 35.453 33.2202 35.1522 33.2202C34.9902 33.2202 34.8629 33.1507 34.7819 33.0927C34.0182 32.4088 33.1388 31.9568 31.9239 31.9568C29.7138 31.9568 28.0591 33.7534 28.0591 36.0485V36.0716C28.0591 38.3783 29.7254 40.1981 31.9239 40.1981C33.1619 40.1981 34.0298 39.7692 34.886 38.981C34.967 38.8999 35.0943 38.8187 35.2447 38.8187C35.534 38.8187 35.7886 39.0737 35.7886 39.3635C35.7886 39.5374 35.7076 39.6765 35.6034 39.7576C34.6199 40.6617 33.5438 41.2297 31.9007 41.2297C28.9964 41.2413 26.8789 38.9694 26.8789 36.1064Z" fill="white"/>
<path d="M36.7948 40.2096L40.1272 35.9672L36.9684 31.9683C36.8642 31.8408 36.7832 31.7133 36.7832 31.5394C36.7832 31.2496 37.0262 30.9946 37.3386 30.9946C37.5701 30.9946 37.6973 31.1105 37.8362 31.2844L40.8446 35.1906L43.8068 31.3192C43.9688 31.1337 44.1077 30.9946 44.3507 30.9946C44.6168 30.9946 44.8598 31.2265 44.8598 31.5278C44.8598 31.6669 44.8019 31.8176 44.6978 31.9219L41.5158 35.9441L44.8019 40.1516C44.9176 40.2791 44.9871 40.4066 44.9871 40.5689C44.9871 40.8703 44.7441 41.1253 44.4317 41.1253C44.2002 41.1253 44.073 41.0094 43.9341 40.8355L40.7868 36.7438L37.6858 40.8007C37.5238 40.9862 37.3849 41.1253 37.1304 41.1253C36.8758 41.1253 36.6328 40.8935 36.6328 40.5921C36.6328 40.4646 36.6907 40.3255 36.7948 40.2096Z" fill="white"/>
</g>
<defs>
<clipPath id="clip0_1382_1463">
<rect width="52" height="66" fill="white"/>
</clipPath>
</defs>
</svg>
