<svg width="22" height="35" viewBox="0 0 22 35" fill="none" xmlns="http://www.w3.org/2000/svg">
<rect width="3" height="3" transform="matrix(-0.999982 -0.00603292 -0.00603292 0.999982 21.0901 19.5029)" fill="#FF0000"/>
<rect width="3" height="3" transform="matrix(-0.999982 -0.00603292 -0.00603292 0.999982 21.072 22.5029)" fill="#FF0000"/>
<rect width="3" height="3" transform="matrix(-0.999982 -0.00603292 -0.00603292 0.999982 18.072 22.4844)" fill="#FF0000"/>
<rect width="3" height="3" transform="matrix(-0.999982 -0.00603292 -0.00603292 0.999982 18.054 25.4844)" fill="#FF0000"/>
<rect width="3" height="3" transform="matrix(-0.999982 -0.00603292 -0.00603292 0.999982 15.054 25.4668)" fill="#FF0000"/>
<rect width="3" height="3" transform="matrix(-0.999982 -0.00603292 -0.00603292 0.999982 15.0359 28.4668)" fill="#FF0000"/>
<rect width="3" height="3" transform="matrix(-0.999982 -0.00603292 -0.00603292 0.999982 12.0359 28.4482)" fill="#FF0000"/>
<rect width="3" height="3" transform="matrix(-0.999982 -0.00603292 -0.00603292 0.999982 12.0178 31.4482)" fill="#FF0000"/>
<rect width="3" height="3" transform="matrix(-0.999982 -0.00603292 -0.00603292 0.999982 9.0542 25.4307)" fill="#FF0000"/>
<rect width="3" height="3" transform="matrix(-0.999982 -0.00603292 -0.00603292 0.999982 9.03589 28.4307)" fill="#FF0000"/>
<rect width="3" height="3" transform="matrix(-0.999982 -0.00603292 -0.00603292 0.999982 6.07227 22.4121)" fill="#FF0000"/>
<rect width="3" height="3" transform="matrix(-0.999982 -0.00603292 -0.00603292 0.999982 6.0542 25.4121)" fill="#FF0000"/>
<rect width="3" height="3" transform="matrix(-0.999982 -0.00603292 -0.00603292 0.999982 3.09033 19.3945)" fill="#FF0000"/>
<rect width="3" height="3" transform="matrix(-0.999982 -0.00603292 -0.00603292 0.999982 3.07227 22.3945)" fill="#FF0000"/>
<rect width="3" height="3" transform="matrix(-0.999982 -0.00603292 -0.00603292 0.999982 21.0901 0.126953)" fill="#FF0000"/>
<rect width="3" height="3" transform="matrix(-0.999982 -0.00603292 -0.00603292 0.999982 21.072 3.12695)" fill="#FF0000"/>
<rect width="3" height="3" transform="matrix(-0.999982 -0.00603292 -0.00603292 0.999982 18.072 3.1084)" fill="#FF0000"/>
<rect width="3" height="3" transform="matrix(-0.999982 -0.00603292 -0.00603292 0.999982 18.054 6.1084)" fill="#FF0000"/>
<rect width="3" height="3" transform="matrix(-0.999982 -0.00603292 -0.00603292 0.999982 15.054 6.09082)" fill="#FF0000"/>
<rect width="3" height="3" transform="matrix(-0.999982 -0.00603292 -0.00603292 0.999982 15.0359 9.09082)" fill="#FF0000"/>
<rect width="3" height="3" transform="matrix(-0.999982 -0.00603292 -0.00603292 0.999982 12.0359 9.07227)" fill="#FF0000"/>
<rect width="3" height="3" transform="matrix(-0.999982 -0.00603292 -0.00603292 0.999982 12.0178 12.0723)" fill="#FF0000"/>
<rect width="3" height="3" transform="matrix(-0.999982 -0.00603292 -0.00603292 0.999982 9.0542 6.05469)" fill="#FF0000"/>
<rect width="3" height="3" transform="matrix(-0.999982 -0.00603292 -0.00603292 0.999982 9.03589 9.05469)" fill="#FF0000"/>
<rect width="3" height="3" transform="matrix(-0.999982 -0.00603292 -0.00603292 0.999982 6.07227 3.03613)" fill="#FF0000"/>
<rect width="3" height="3" transform="matrix(-0.999982 -0.00603292 -0.00603292 0.999982 6.0542 6.03613)" fill="#FF0000"/>
<rect width="3" height="3" transform="matrix(-0.999982 -0.00603292 -0.00603292 0.999982 3.09033 0.0185547)" fill="#FF0000"/>
<rect width="3" height="3" transform="matrix(-0.999982 -0.00603292 -0.00603292 0.999982 3.07227 3.01855)" fill="#FF0000"/>
</svg>
