<svg width="171" height="52" viewBox="0 0 171 52" fill="none" xmlns="http://www.w3.org/2000/svg">
<path d="M10.52 9.48C10.616 9.864 10.664 10.344 10.664 10.92C10.664 11.472 10.616 11.952 10.52 12.36H4.76C4.856 12.744 4.904 13.224 4.904 13.8C4.904 14.352 4.856 14.832 4.76 15.24C4.856 15.624 4.904 16.104 4.904 16.68C4.904 17.232 4.856 17.712 4.76 18.12C4.856 18.504 4.904 18.984 4.904 19.56C4.904 20.112 4.856 20.592 4.76 21H1.88C1.784 20.592 1.736 20.112 1.736 19.56C1.736 18.984 1.784 18.504 1.88 18.12C1.784 17.712 1.736 17.232 1.736 16.68C1.736 16.104 1.784 15.624 1.88 15.24C1.784 14.832 1.736 14.352 1.736 13.8C1.736 13.224 1.784 12.744 1.88 12.36C1.784 11.952 1.736 11.472 1.736 10.92C1.736 10.344 1.784 9.864 1.88 9.48C1.784 9.072 1.736 8.592 1.736 8.04C1.736 7.464 1.784 6.984 1.88 6.6C1.784 6.192 1.736 5.712 1.736 5.16C1.736 4.584 1.784 4.104 1.88 3.72C1.784 3.312 1.736 2.832 1.736 2.28C1.736 1.704 1.784 1.224 1.88 0.84H10.52C10.616 1.224 10.664 1.704 10.664 2.28C10.664 2.832 10.616 3.312 10.52 3.72H4.76C4.856 4.104 4.904 4.584 4.904 5.16C4.904 5.712 4.856 6.192 4.76 6.6C4.856 6.984 4.904 7.464 4.904 8.04C4.904 8.592 4.856 9.072 4.76 9.48H10.52ZM26.3741 18.12C26.4701 18.504 26.5181 18.984 26.5181 19.56C26.5181 20.112 26.4701 20.592 26.3741 21H23.4941C23.3981 20.592 23.3501 20.112 23.3501 19.56C23.3501 18.984 23.3981 18.504 23.4941 18.12H22.0541C21.9581 17.712 21.9101 17.232 21.9101 16.68C21.9101 16.104 21.9581 15.624 22.0541 15.24H17.7341C17.8301 15.624 17.8781 16.104 17.8781 16.68C17.8781 17.232 17.8301 17.712 17.7341 18.12H22.0541C22.1501 18.504 22.1981 18.984 22.1981 19.56C22.1981 20.112 22.1501 20.592 22.0541 21H16.2941C16.1981 20.592 16.1501 20.112 16.1501 19.56C16.1501 18.984 16.1981 18.504 16.2941 18.12H14.8541C14.7581 17.712 14.7101 17.232 14.7101 16.68C14.7101 16.104 14.7581 15.624 14.8541 15.24H16.2941C16.1981 14.832 16.1501 14.352 16.1501 13.8C16.1501 13.224 16.1981 12.744 16.2941 12.36H22.0541C21.9581 11.952 21.9101 11.472 21.9101 10.92C21.9101 10.344 21.9581 9.864 22.0541 9.48H17.0141C16.9181 9.072 16.8701 8.592 16.8701 8.04C16.8701 7.464 16.9181 6.984 17.0141 6.6H23.4941C23.5901 6.984 23.6381 7.464 23.6381 8.04C23.6381 8.592 23.5901 9.072 23.4941 9.48H24.9341C25.0301 9.864 25.0781 10.344 25.0781 10.92C25.0781 11.472 25.0301 11.952 24.9341 12.36C25.0301 12.744 25.0781 13.224 25.0781 13.8C25.0781 14.352 25.0301 14.832 24.9341 15.24C25.0301 15.624 25.0781 16.104 25.0781 16.68C25.0781 17.232 25.0301 17.712 24.9341 18.12H26.3741ZM33.5881 3.72C33.4921 3.312 33.4441 2.832 33.4441 2.28C33.4441 1.704 33.4921 1.224 33.5881 0.84H36.4681C36.5641 1.224 36.6121 1.704 36.6121 2.28C36.6121 2.832 36.5641 3.312 36.4681 3.72H33.5881ZM39.3481 18.12C39.4441 18.504 39.4921 18.984 39.4921 19.56C39.4921 20.112 39.4441 20.592 39.3481 21H30.7081C30.6121 20.592 30.5641 20.112 30.5641 19.56C30.5641 18.984 30.6121 18.504 30.7081 18.12H33.5881C33.4921 17.712 33.4441 17.232 33.4441 16.68C33.4441 16.104 33.4921 15.624 33.5881 15.24C33.4921 14.832 33.4441 14.352 33.4441 13.8C33.4441 13.224 33.4921 12.744 33.5881 12.36C33.4921 11.952 33.4441 11.472 33.4441 10.92C33.4441 10.344 33.4921 9.864 33.5881 9.48H31.4281C31.3321 9.072 31.2841 8.592 31.2841 8.04C31.2841 7.464 31.3321 6.984 31.4281 6.6H36.4681C36.5641 6.984 36.6121 7.464 36.6121 8.04C36.6121 8.592 36.5641 9.072 36.4681 9.48C36.5641 9.864 36.6121 10.344 36.6121 10.92C36.6121 11.472 36.5641 11.952 36.4681 12.36C36.5641 12.744 36.6121 13.224 36.6121 13.8C36.6121 14.352 36.5641 14.832 36.4681 15.24C36.5641 15.624 36.6121 16.104 36.6121 16.68C36.6121 17.232 36.5641 17.712 36.4681 18.12H39.3481ZM55.2022 9.48C55.2982 9.864 55.3462 10.344 55.3462 10.92C55.3462 11.472 55.2982 11.952 55.2022 12.36H52.3222C52.2262 11.952 52.1782 11.472 52.1782 10.92C52.1782 10.344 52.2262 9.864 52.3222 9.48H49.8022C49.8982 9.864 49.9462 10.344 49.9462 10.92C49.9462 11.472 49.8982 11.952 49.8022 12.36H48.7222C48.8182 12.744 48.8662 13.224 48.8662 13.8C48.8662 14.352 48.8182 14.832 48.7222 15.24C48.8182 15.624 48.8662 16.104 48.8662 16.68C48.8662 17.232 48.8182 17.712 48.7222 18.12H50.8822C50.9782 18.504 51.0262 18.984 51.0262 19.56C51.0262 20.112 50.9782 20.592 50.8822 21H43.6822C43.5862 20.592 43.5382 20.112 43.5382 19.56C43.5382 18.984 43.5862 18.504 43.6822 18.12H45.8422C45.7462 17.712 45.6982 17.232 45.6982 16.68C45.6982 16.104 45.7462 15.624 45.8422 15.24C45.7462 14.832 45.6982 14.352 45.6982 13.8C45.6982 13.224 45.7462 12.744 45.8422 12.36C45.7462 11.952 45.6982 11.472 45.6982 10.92C45.6982 10.344 45.7462 9.864 45.8422 9.48H43.6822C43.5862 9.072 43.5382 8.592 43.5382 8.04C43.5382 7.464 43.5862 6.984 43.6822 6.6H47.2822C47.3782 6.984 47.4262 7.464 47.4262 8.04C47.4262 8.592 47.3782 9.072 47.2822 9.48H48.7222C48.6262 9.072 48.5782 8.592 48.5782 8.04C48.5782 7.464 48.6262 6.984 48.7222 6.6H54.1222C54.2182 6.984 54.2662 7.464 54.2662 8.04C54.2662 8.592 54.2182 9.072 54.1222 9.48H55.2022ZM69.7603 8.04C69.7603 8.592 69.7123 9.072 69.6163 9.48H68.5363C68.6323 9.864 68.6803 10.344 68.6803 10.92C68.6803 11.472 68.6323 11.952 68.5363 12.36H67.4563C67.5523 12.744 67.6003 13.224 67.6003 13.8C67.6003 14.352 67.5523 14.832 67.4563 15.24H66.7363C66.8323 15.624 66.8803 16.104 66.8803 16.68C66.8803 17.232 66.8323 17.712 66.7363 18.12H65.6562C65.7523 18.504 65.8003 18.984 65.8003 19.56C65.8003 20.112 65.7523 20.592 65.6562 21H64.9363C65.0323 21.384 65.0803 21.864 65.0803 22.44C65.0803 22.992 65.0323 23.472 64.9363 23.88H63.4963C63.5923 24.264 63.6403 24.744 63.6403 25.32C63.6403 25.872 63.5923 26.352 63.4963 26.76H59.1763C59.0802 26.352 59.0322 25.872 59.0322 25.32C59.0322 24.744 59.0802 24.264 59.1763 23.88H62.0563C61.9603 23.472 61.9123 22.992 61.9123 22.44C61.9123 21.864 61.9603 21.384 62.0563 21C61.9603 20.592 61.9123 20.112 61.9123 19.56C61.9123 18.984 61.9603 18.504 62.0563 18.12H60.6163C60.5203 17.712 60.4723 17.232 60.4723 16.68C60.4723 16.104 60.5203 15.624 60.6163 15.24H59.8963C59.8003 14.832 59.7523 14.352 59.7523 13.8C59.7523 13.224 59.8003 12.744 59.8963 12.36H58.8163C58.7203 11.952 58.6723 11.472 58.6723 10.92C58.6723 10.344 58.7203 9.864 58.8163 9.48H57.7363C57.6403 9.072 57.5923 8.592 57.5923 8.04C57.5923 7.464 57.6403 6.984 57.7363 6.6H60.6163C60.7123 6.984 60.7603 7.464 60.7603 8.04C60.7603 8.592 60.7123 9.072 60.6163 9.48H61.6963C61.7923 9.864 61.8403 10.344 61.8403 10.92C61.8403 11.472 61.7923 11.952 61.6963 12.36H62.7763C62.8723 12.744 62.9203 13.224 62.9203 13.8C62.9203 14.352 62.8723 14.832 62.7763 15.24C62.8723 15.624 62.9203 16.104 62.9203 16.68C62.9203 17.232 62.8723 17.712 62.7763 18.12H63.8563C63.7603 17.712 63.7123 17.232 63.7123 16.68C63.7123 16.104 63.7603 15.624 63.8563 15.24H64.5763C64.4803 14.832 64.4323 14.352 64.4323 13.8C64.4323 13.224 64.4803 12.744 64.5763 12.36H65.6562C65.5603 11.952 65.5123 11.472 65.5123 10.92C65.5123 10.344 65.5603 9.864 65.6562 9.48H66.7363C66.6403 9.072 66.5923 8.592 66.5923 8.04C66.5923 7.464 66.6403 6.984 66.7363 6.6H69.6163C69.7123 6.984 69.7603 7.464 69.7603 8.04ZM82.5903 18.12C82.6863 18.504 82.7343 18.984 82.7343 19.56C82.7343 20.112 82.6863 20.592 82.5903 21H76.8303C76.7343 20.592 76.6863 20.112 76.6863 19.56C76.6863 18.984 76.7343 18.504 76.8303 18.12H75.3903C75.2943 17.712 75.2463 17.232 75.2463 16.68C75.2463 16.104 75.2943 15.624 75.3903 15.24C75.2943 14.832 75.2463 14.352 75.2463 13.8C75.2463 13.224 75.2943 12.744 75.3903 12.36C75.2943 11.952 75.2463 11.472 75.2463 10.92C75.2463 10.344 75.2943 9.864 75.3903 9.48H72.5103C72.4143 9.072 72.3663 8.592 72.3663 8.04C72.3663 7.464 72.4143 6.984 72.5103 6.6H75.3903C75.2943 6.192 75.2463 5.712 75.2463 5.16C75.2463 4.584 75.2943 4.104 75.3903 3.72C75.2943 3.312 75.2463 2.832 75.2463 2.28C75.2463 1.704 75.2943 1.224 75.3903 0.84H78.2703C78.3663 1.224 78.4143 1.704 78.4143 2.28C78.4143 2.832 78.3663 3.312 78.2703 3.72C78.3663 4.104 78.4143 4.584 78.4143 5.16C78.4143 5.712 78.3663 6.192 78.2703 6.6H82.5903C82.6863 6.984 82.7343 7.464 82.7343 8.04C82.7343 8.592 82.6863 9.072 82.5903 9.48H78.2703C78.3663 9.864 78.4143 10.344 78.4143 10.92C78.4143 11.472 78.3663 11.952 78.2703 12.36C78.3663 12.744 78.4143 13.224 78.4143 13.8C78.4143 14.352 78.3663 14.832 78.2703 15.24C78.3663 15.624 78.4143 16.104 78.4143 16.68C78.4143 17.232 78.3663 17.712 78.2703 18.12H82.5903ZM98.4444 18.12C98.5404 18.504 98.5884 18.984 98.5884 19.56C98.5884 20.112 98.5404 20.592 98.4444 21H95.5644C95.4684 20.592 95.4204 20.112 95.4204 19.56C95.4204 18.984 95.4684 18.504 95.5644 18.12H94.1244C94.0284 17.712 93.9804 17.232 93.9804 16.68C93.9804 16.104 94.0284 15.624 94.1244 15.24H89.8044C89.9004 15.624 89.9484 16.104 89.9484 16.68C89.9484 17.232 89.9004 17.712 89.8044 18.12H94.1244C94.2204 18.504 94.2684 18.984 94.2684 19.56C94.2684 20.112 94.2204 20.592 94.1244 21H88.3644C88.2684 20.592 88.2204 20.112 88.2204 19.56C88.2204 18.984 88.2684 18.504 88.3644 18.12H86.9244C86.8284 17.712 86.7804 17.232 86.7804 16.68C86.7804 16.104 86.8284 15.624 86.9244 15.24H88.3644C88.2684 14.832 88.2204 14.352 88.2204 13.8C88.2204 13.224 88.2684 12.744 88.3644 12.36H94.1244C94.0284 11.952 93.9804 11.472 93.9804 10.92C93.9804 10.344 94.0284 9.864 94.1244 9.48H89.0844C88.9884 9.072 88.9404 8.592 88.9404 8.04C88.9404 7.464 88.9884 6.984 89.0844 6.6H95.5644C95.6604 6.984 95.7084 7.464 95.7084 8.04C95.7084 8.592 95.6604 9.072 95.5644 9.48H97.0044C97.1004 9.864 97.1484 10.344 97.1484 10.92C97.1484 11.472 97.1004 11.952 97.0044 12.36C97.1004 12.744 97.1484 13.224 97.1484 13.8C97.1484 14.352 97.1004 14.832 97.0044 15.24C97.1004 15.624 97.1484 16.104 97.1484 16.68C97.1484 17.232 97.1004 17.712 97.0044 18.12H98.4444ZM111.418 18.12C111.514 18.504 111.562 18.984 111.562 19.56C111.562 20.112 111.514 20.592 111.418 21H102.778C102.682 20.592 102.634 20.112 102.634 19.56C102.634 18.984 102.682 18.504 102.778 18.12H105.658C105.562 17.712 105.514 17.232 105.514 16.68C105.514 16.104 105.562 15.624 105.658 15.24C105.562 14.832 105.514 14.352 105.514 13.8C105.514 13.224 105.562 12.744 105.658 12.36C105.562 11.952 105.514 11.472 105.514 10.92C105.514 10.344 105.562 9.864 105.658 9.48C105.562 9.072 105.514 8.592 105.514 8.04C105.514 7.464 105.562 6.984 105.658 6.6C105.562 6.192 105.514 5.712 105.514 5.16C105.514 4.584 105.562 4.104 105.658 3.72H103.498C103.402 3.312 103.354 2.832 103.354 2.28C103.354 1.704 103.402 1.224 103.498 0.84H108.538C108.634 1.224 108.682 1.704 108.682 2.28C108.682 2.832 108.634 3.312 108.538 3.72C108.634 4.104 108.682 4.584 108.682 5.16C108.682 5.712 108.634 6.192 108.538 6.6C108.634 6.984 108.682 7.464 108.682 8.04C108.682 8.592 108.634 9.072 108.538 9.48C108.634 9.864 108.682 10.344 108.682 10.92C108.682 11.472 108.634 11.952 108.538 12.36C108.634 12.744 108.682 13.224 108.682 13.8C108.682 14.352 108.634 14.832 108.538 15.24C108.634 15.624 108.682 16.104 108.682 16.68C108.682 17.232 108.634 17.712 108.538 18.12H111.418ZM127.417 10.92C127.417 11.472 127.369 11.952 127.273 12.36C127.369 12.744 127.417 13.224 127.417 13.8C127.417 14.352 127.369 14.832 127.273 15.24H119.713C119.809 15.624 119.857 16.104 119.857 16.68C119.857 17.232 119.809 17.712 119.713 18.12H125.833C125.929 18.504 125.977 18.984 125.977 19.56C125.977 20.112 125.929 20.592 125.833 21H118.633C118.537 20.592 118.489 20.112 118.489 19.56C118.489 18.984 118.537 18.504 118.633 18.12H116.833C116.736 17.712 116.688 17.232 116.688 16.68C116.688 16.104 116.736 15.624 116.833 15.24H115.753C115.657 14.832 115.609 14.352 115.609 13.8C115.609 13.224 115.657 12.744 115.753 12.36H116.833C116.736 11.952 116.688 11.472 116.688 10.92C116.688 10.344 116.736 9.864 116.833 9.48H118.633C118.537 9.072 118.489 8.592 118.489 8.04C118.489 7.464 118.537 6.984 118.633 6.6H125.833C125.929 6.984 125.977 7.464 125.977 8.04C125.977 8.592 125.929 9.072 125.833 9.48H127.273C127.369 9.864 127.417 10.344 127.417 10.92ZM124.393 12.36C124.297 11.952 124.249 11.472 124.249 10.92C124.249 10.344 124.297 9.864 124.393 9.48H119.713C119.809 9.864 119.857 10.344 119.857 10.92C119.857 11.472 119.809 11.952 119.713 12.36H124.393ZM141.111 16.68C141.111 17.232 141.063 17.712 140.967 18.12H139.527C139.623 18.504 139.671 18.984 139.671 19.56C139.671 20.112 139.623 20.592 139.527 21H131.607C131.511 20.592 131.463 20.112 131.463 19.56C131.463 18.984 131.511 18.504 131.607 18.12H138.087C137.991 17.712 137.943 17.232 137.943 16.68C137.943 16.104 137.991 15.624 138.087 15.24H132.327C132.231 14.832 132.183 14.352 132.183 13.8C132.183 13.224 132.231 12.744 132.327 12.36H130.887C130.791 11.952 130.743 11.472 130.743 10.92C130.743 10.344 130.791 9.864 130.887 9.48H132.327C132.231 9.072 132.183 8.592 132.183 8.04C132.183 7.464 132.231 6.984 132.327 6.6H140.247C140.343 6.984 140.391 7.464 140.391 8.04C140.391 8.592 140.343 9.072 140.247 9.48H133.767C133.863 9.864 133.911 10.344 133.911 10.92C133.911 11.472 133.863 11.952 133.767 12.36H139.527C139.623 12.744 139.671 13.224 139.671 13.8C139.671 14.352 139.623 14.832 139.527 15.24H140.967C141.063 15.624 141.111 16.104 141.111 16.68ZM170.659 10.92C170.659 11.472 170.611 11.952 170.515 12.36H168.715C168.811 12.744 168.859 13.224 168.859 13.8C168.859 14.352 168.811 14.832 168.715 15.24H169.795C169.891 15.624 169.939 16.104 169.939 16.68C169.939 17.232 169.891 17.712 169.795 18.12H170.515C170.611 18.504 170.659 18.984 170.659 19.56C170.659 20.112 170.611 20.592 170.515 21H167.635C167.539 20.592 167.491 20.112 167.491 19.56C167.491 18.984 167.539 18.504 167.635 18.12C167.539 17.712 167.491 17.232 167.491 16.68C167.491 16.104 167.539 15.624 167.635 15.24H166.555C166.651 15.624 166.699 16.104 166.699 16.68C166.699 17.232 166.651 17.712 166.555 18.12H165.475C165.571 18.504 165.619 18.984 165.619 19.56C165.619 20.112 165.571 20.592 165.475 21H160.435C160.339 20.592 160.291 20.112 160.291 19.56C160.291 18.984 160.339 18.504 160.435 18.12H158.995C158.899 17.712 158.851 17.232 158.851 16.68C158.851 16.104 158.899 15.624 158.995 15.24C158.899 14.832 158.851 14.352 158.851 13.8C158.851 13.224 158.899 12.744 158.995 12.36H160.435C160.339 11.952 160.291 11.472 160.291 10.92C160.291 10.344 160.339 9.864 160.435 9.48H161.875C161.779 9.072 161.731 8.592 161.731 8.04C161.731 7.464 161.779 6.984 161.875 6.6H160.435C160.339 6.192 160.291 5.712 160.291 5.16C160.291 4.584 160.339 4.104 160.435 3.72H161.875C161.779 3.312 161.731 2.832 161.731 2.28C161.731 1.704 161.779 1.224 161.875 0.84H166.195C166.291 1.224 166.339 1.704 166.339 2.28C166.339 2.832 166.291 3.312 166.195 3.72H167.635C167.731 4.104 167.779 4.584 167.779 5.16C167.779 5.712 167.731 6.192 167.635 6.6H165.475C165.379 6.192 165.331 5.712 165.331 5.16C165.331 4.584 165.379 4.104 165.475 3.72H162.595C162.691 4.104 162.739 4.584 162.739 5.16C162.739 5.712 162.691 6.192 162.595 6.6H165.475C165.571 6.984 165.619 7.464 165.619 8.04C165.619 8.592 165.571 9.072 165.475 9.48H166.555C166.651 9.864 166.699 10.344 166.699 10.92C166.699 11.472 166.651 11.952 166.555 12.36H168.355C168.259 11.952 168.211 11.472 168.211 10.92C168.211 10.344 168.259 9.864 168.355 9.48C168.259 9.072 168.211 8.592 168.211 8.04C168.211 7.464 168.259 6.984 168.355 6.6H170.515C170.611 6.984 170.659 7.464 170.659 8.04C170.659 8.592 170.611 9.072 170.515 9.48C170.611 9.864 170.659 10.344 170.659 10.92ZM165.475 15.24C165.379 14.832 165.331 14.352 165.331 13.8C165.331 13.224 165.379 12.744 165.475 12.36H164.395C164.299 11.952 164.251 11.472 164.251 10.92C164.251 10.344 164.299 9.864 164.395 9.48H163.315C163.411 9.864 163.459 10.344 163.459 10.92C163.459 11.472 163.411 11.952 163.315 12.36H161.875C161.971 12.744 162.019 13.224 162.019 13.8C162.019 14.352 161.971 14.832 161.875 15.24C161.971 15.624 162.019 16.104 162.019 16.68C162.019 17.232 161.971 17.712 161.875 18.12H164.395C164.299 17.712 164.251 17.232 164.251 16.68C164.251 16.104 164.299 15.624 164.395 15.24H165.475ZM11.96 40.24C12.056 40.624 12.104 41.104 12.104 41.68C12.104 42.232 12.056 42.712 11.96 43.12H10.52C10.616 43.504 10.664 43.984 10.664 44.56C10.664 45.112 10.616 45.592 10.52 46H3.32C3.224 45.592 3.176 45.112 3.176 44.56C3.176 43.984 3.224 43.504 3.32 43.12H1.88C1.784 42.712 1.736 42.232 1.736 41.68C1.736 41.104 1.784 40.624 1.88 40.24H0.44C0.344 39.832 0.296 39.352 0.296 38.8C0.296 38.224 0.344 37.744 0.44 37.36H1.88C1.784 36.952 1.736 36.472 1.736 35.92C1.736 35.344 1.784 34.864 1.88 34.48H3.32C3.224 34.072 3.176 33.592 3.176 33.04C3.176 32.464 3.224 31.984 3.32 31.6H10.52C10.616 31.984 10.664 32.464 10.664 33.04C10.664 33.592 10.616 34.072 10.52 34.48H11.96C12.056 34.864 12.104 35.344 12.104 35.92C12.104 36.472 12.056 36.952 11.96 37.36H9.08C8.984 36.952 8.936 36.472 8.936 35.92C8.936 35.344 8.984 34.864 9.08 34.48H4.76C4.856 34.864 4.904 35.344 4.904 35.92C4.904 36.472 4.856 36.952 4.76 37.36H3.32C3.416 37.744 3.464 38.224 3.464 38.8C3.464 39.352 3.416 39.832 3.32 40.24H4.76C4.856 40.624 4.904 41.104 4.904 41.68C4.904 42.232 4.856 42.712 4.76 43.12H9.08C8.984 42.712 8.936 42.232 8.936 41.68C8.936 41.104 8.984 40.624 9.08 40.24H11.96ZM26.5181 38.8C26.5181 39.352 26.4701 39.832 26.3741 40.24H25.2941C25.3901 40.624 25.4381 41.104 25.4381 41.68C25.4381 42.232 25.3901 42.712 25.2941 43.12H23.4941C23.5901 43.504 23.6381 43.984 23.6381 44.56C23.6381 45.112 23.5901 45.592 23.4941 46H17.7341C17.6381 45.592 17.5901 45.112 17.5901 44.56C17.5901 43.984 17.6381 43.504 17.7341 43.12H15.9341C15.8381 42.712 15.7901 42.232 15.7901 41.68C15.7901 41.104 15.8381 40.624 15.9341 40.24H14.8541C14.7581 39.832 14.7101 39.352 14.7101 38.8C14.7101 38.224 14.7581 37.744 14.8541 37.36H15.9341C15.8381 36.952 15.7901 36.472 15.7901 35.92C15.7901 35.344 15.8381 34.864 15.9341 34.48H17.7341C17.6381 34.072 17.5901 33.592 17.5901 33.04C17.5901 32.464 17.6381 31.984 17.7341 31.6H23.4941C23.5901 31.984 23.6381 32.464 23.6381 33.04C23.6381 33.592 23.5901 34.072 23.4941 34.48H25.2941C25.3901 34.864 25.4381 35.344 25.4381 35.92C25.4381 36.472 25.3901 36.952 25.2941 37.36H26.3741C26.4701 37.744 26.5181 38.224 26.5181 38.8ZM23.4941 40.24C23.3981 39.832 23.3501 39.352 23.3501 38.8C23.3501 38.224 23.3981 37.744 23.4941 37.36H22.4141C22.3181 36.952 22.2701 36.472 22.2701 35.92C22.2701 35.344 22.3181 34.864 22.4141 34.48H18.8141C18.9101 34.864 18.9581 35.344 18.9581 35.92C18.9581 36.472 18.9101 36.952 18.8141 37.36H17.7341C17.8301 37.744 17.8781 38.224 17.8781 38.8C17.8781 39.352 17.8301 39.832 17.7341 40.24H18.8141C18.9101 40.624 18.9581 41.104 18.9581 41.68C18.9581 42.232 18.9101 42.712 18.8141 43.12H22.4141C22.3181 42.712 22.2701 42.232 22.2701 41.68C22.2701 41.104 22.3181 40.624 22.4141 40.24H23.4941ZM31.9321 33.04C31.9321 33.592 31.8841 34.072 31.7881 34.48H33.2281C33.3241 34.864 33.3721 35.344 33.3721 35.92C33.3721 36.472 33.3241 36.952 33.2281 37.36H32.1481C32.2441 37.744 32.2921 38.224 32.2921 38.8C32.2921 39.352 32.2441 39.832 32.1481 40.24C32.2441 40.624 32.2921 41.104 32.2921 41.68C32.2921 42.232 32.2441 42.712 32.1481 43.12C32.2441 43.504 32.2921 43.984 32.2921 44.56C32.2921 45.112 32.2441 45.592 32.1481 46H29.2681C29.1721 45.592 29.1241 45.112 29.1241 44.56C29.1241 43.984 29.1721 43.504 29.2681 43.12C29.1721 42.712 29.1241 42.232 29.1241 41.68C29.1241 41.104 29.1721 40.624 29.2681 40.24C29.1721 39.832 29.1241 39.352 29.1241 38.8C29.1241 38.224 29.1721 37.744 29.2681 37.36C29.1721 36.952 29.1241 36.472 29.1241 35.92C29.1241 35.344 29.1721 34.864 29.2681 34.48C29.1721 34.072 29.1241 33.592 29.1241 33.04C29.1241 32.464 29.1721 31.984 29.2681 31.6H31.7881C31.8841 31.984 31.9321 32.464 31.9321 33.04ZM40.7881 37.36C40.8841 37.744 40.9321 38.224 40.9321 38.8C40.9321 39.352 40.8841 39.832 40.7881 40.24C40.8841 40.624 40.9321 41.104 40.9321 41.68C40.9321 42.232 40.8841 42.712 40.7881 43.12C40.8841 43.504 40.9321 43.984 40.9321 44.56C40.9321 45.112 40.8841 45.592 40.7881 46H37.9081C37.8121 45.592 37.7641 45.112 37.7641 44.56C37.7641 43.984 37.8121 43.504 37.9081 43.12C37.8121 42.712 37.7641 42.232 37.7641 41.68C37.7641 41.104 37.8121 40.624 37.9081 40.24C37.8121 39.832 37.7641 39.352 37.7641 38.8C37.7641 38.224 37.8121 37.744 37.9081 37.36C37.8121 36.952 37.7641 36.472 37.7641 35.92C37.7641 35.344 37.8121 34.864 37.9081 34.48H33.2281C33.1321 34.072 33.0841 33.592 33.0841 33.04C33.0841 32.464 33.1321 31.984 33.2281 31.6H38.9881C39.0841 31.984 39.1321 32.464 39.1321 33.04C39.1321 33.592 39.0841 34.072 38.9881 34.48H40.7881C40.8841 34.864 40.9321 35.344 40.9321 35.92C40.9321 36.472 40.8841 36.952 40.7881 37.36ZM54.6262 41.68C54.6262 42.232 54.5782 42.712 54.4822 43.12H53.0422C53.1382 43.504 53.1862 43.984 53.1862 44.56C53.1862 45.112 53.1382 45.592 53.0422 46H45.1222C45.0262 45.592 44.9782 45.112 44.9782 44.56C44.9782 43.984 45.0262 43.504 45.1222 43.12H51.6022C51.5062 42.712 51.4582 42.232 51.4582 41.68C51.4582 41.104 51.5062 40.624 51.6022 40.24H45.8422C45.7462 39.832 45.6982 39.352 45.6982 38.8C45.6982 38.224 45.7462 37.744 45.8422 37.36H44.4022C44.3062 36.952 44.2582 36.472 44.2582 35.92C44.2582 35.344 44.3062 34.864 44.4022 34.48H45.8422C45.7462 34.072 45.6982 33.592 45.6982 33.04C45.6982 32.464 45.7462 31.984 45.8422 31.6H53.7622C53.8582 31.984 53.9062 32.464 53.9062 33.04C53.9062 33.592 53.8582 34.072 53.7622 34.48H47.2822C47.3782 34.864 47.4262 35.344 47.4262 35.92C47.4262 36.472 47.3782 36.952 47.2822 37.36H53.0422C53.1382 37.744 53.1862 38.224 53.1862 38.8C53.1862 39.352 53.1382 39.832 53.0422 40.24H54.4822C54.5782 40.624 54.6262 41.104 54.6262 41.68ZM69.7603 38.8C69.7603 39.352 69.7123 39.832 69.6163 40.24H68.1763C68.2723 40.624 68.3203 41.104 68.3203 41.68C68.3203 42.232 68.2723 42.712 68.1763 43.12H66.7363C66.8323 43.504 66.8803 43.984 66.8803 44.56C66.8803 45.112 66.8323 45.592 66.7363 46H60.9763C61.0723 46.384 61.1203 46.864 61.1203 47.44C61.1203 47.992 61.0723 48.472 60.9763 48.88C61.0723 49.264 61.1203 49.744 61.1203 50.32C61.1203 50.872 61.0723 51.352 60.9763 51.76H58.0963C58.0003 51.352 57.9523 50.872 57.9523 50.32C57.9523 49.744 58.0003 49.264 58.0963 48.88C58.0003 48.472 57.9523 47.992 57.9523 47.44C57.9523 46.864 58.0003 46.384 58.0963 46C58.0003 45.592 57.9523 45.112 57.9523 44.56C57.9523 43.984 58.0003 43.504 58.0963 43.12C58.0003 42.712 57.9523 42.232 57.9523 41.68C57.9523 41.104 58.0003 40.624 58.0963 40.24C58.0003 39.832 57.9523 39.352 57.9523 38.8C57.9523 38.224 58.0003 37.744 58.0963 37.36C58.0003 36.952 57.9523 36.472 57.9523 35.92C57.9523 35.344 58.0003 34.864 58.0963 34.48C58.0003 34.072 57.9523 33.592 57.9523 33.04C57.9523 32.464 58.0003 31.984 58.0963 31.6H60.9763C61.0723 31.984 61.1203 32.464 61.1203 33.04C61.1203 33.592 61.0723 34.072 60.9763 34.48H62.4163C62.5123 34.864 62.5603 35.344 62.5603 35.92C62.5603 36.472 62.5123 36.952 62.4163 37.36H60.9763C61.0723 37.744 61.1203 38.224 61.1203 38.8C61.1203 39.352 61.0723 39.832 60.9763 40.24C61.0723 40.624 61.1203 41.104 61.1203 41.68C61.1203 42.232 61.0723 42.712 60.9763 43.12H65.2963C65.2003 42.712 65.1523 42.232 65.1523 41.68C65.1523 41.104 65.2003 40.624 65.2963 40.24H66.7363C66.6403 39.832 66.5923 39.352 66.5923 38.8C66.5923 38.224 66.6403 37.744 66.7363 37.36H65.2963C65.2003 36.952 65.1523 36.472 65.1523 35.92C65.1523 35.344 65.2003 34.864 65.2963 34.48H62.4163C62.3203 34.072 62.2723 33.592 62.2723 33.04C62.2723 32.464 62.3203 31.984 62.4163 31.6H66.7363C66.8323 31.984 66.8803 32.464 66.8803 33.04C66.8803 33.592 66.8323 34.072 66.7363 34.48H68.1763C68.2723 34.864 68.3203 35.344 68.3203 35.92C68.3203 36.472 68.2723 36.952 68.1763 37.36H69.6163C69.7123 37.744 69.7603 38.224 69.7603 38.8ZM76.8303 28.72C76.7343 28.312 76.6863 27.832 76.6863 27.28C76.6863 26.704 76.7343 26.224 76.8303 25.84H79.7103C79.8063 26.224 79.8543 26.704 79.8543 27.28C79.8543 27.832 79.8063 28.312 79.7103 28.72H76.8303ZM82.5903 43.12C82.6863 43.504 82.7343 43.984 82.7343 44.56C82.7343 45.112 82.6863 45.592 82.5903 46H73.9503C73.8543 45.592 73.8063 45.112 73.8063 44.56C73.8063 43.984 73.8543 43.504 73.9503 43.12H76.8303C76.7343 42.712 76.6863 42.232 76.6863 41.68C76.6863 41.104 76.7343 40.624 76.8303 40.24C76.7343 39.832 76.6863 39.352 76.6863 38.8C76.6863 38.224 76.7343 37.744 76.8303 37.36C76.7343 36.952 76.6863 36.472 76.6863 35.92C76.6863 35.344 76.7343 34.864 76.8303 34.48H74.6703C74.5743 34.072 74.5263 33.592 74.5263 33.04C74.5263 32.464 74.5743 31.984 74.6703 31.6H79.7103C79.8063 31.984 79.8543 32.464 79.8543 33.04C79.8543 33.592 79.8063 34.072 79.7103 34.48C79.8063 34.864 79.8543 35.344 79.8543 35.92C79.8543 36.472 79.8063 36.952 79.7103 37.36C79.8063 37.744 79.8543 38.224 79.8543 38.8C79.8543 39.352 79.8063 39.832 79.7103 40.24C79.8063 40.624 79.8543 41.104 79.8543 41.68C79.8543 42.232 79.8063 42.712 79.7103 43.12H82.5903ZM98.4444 34.48C98.5404 34.864 98.5884 35.344 98.5884 35.92C98.5884 36.472 98.5404 36.952 98.4444 37.36H95.5644C95.4684 36.952 95.4204 36.472 95.4204 35.92C95.4204 35.344 95.4684 34.864 95.5644 34.48H93.0444C93.1404 34.864 93.1884 35.344 93.1884 35.92C93.1884 36.472 93.1404 36.952 93.0444 37.36H91.9644C92.0604 37.744 92.1084 38.224 92.1084 38.8C92.1084 39.352 92.0604 39.832 91.9644 40.24C92.0604 40.624 92.1084 41.104 92.1084 41.68C92.1084 42.232 92.0604 42.712 91.9644 43.12H94.1244C94.2204 43.504 94.2684 43.984 94.2684 44.56C94.2684 45.112 94.2204 45.592 94.1244 46H86.9244C86.8284 45.592 86.7804 45.112 86.7804 44.56C86.7804 43.984 86.8284 43.504 86.9244 43.12H89.0844C88.9884 42.712 88.9404 42.232 88.9404 41.68C88.9404 41.104 88.9884 40.624 89.0844 40.24C88.9884 39.832 88.9404 39.352 88.9404 38.8C88.9404 38.224 88.9884 37.744 89.0844 37.36C88.9884 36.952 88.9404 36.472 88.9404 35.92C88.9404 35.344 88.9884 34.864 89.0844 34.48H86.9244C86.8284 34.072 86.7804 33.592 86.7804 33.04C86.7804 32.464 86.8284 31.984 86.9244 31.6H90.5244C90.6204 31.984 90.6684 32.464 90.6684 33.04C90.6684 33.592 90.6204 34.072 90.5244 34.48H91.9644C91.8684 34.072 91.8204 33.592 91.8204 33.04C91.8204 32.464 91.8684 31.984 91.9644 31.6H97.3644C97.4604 31.984 97.5084 32.464 97.5084 33.04C97.5084 33.592 97.4604 34.072 97.3644 34.48H98.4444ZM112.858 43.12C112.954 43.504 113.002 43.984 113.002 44.56C113.002 45.112 112.954 45.592 112.858 46H109.978C109.882 45.592 109.834 45.112 109.834 44.56C109.834 43.984 109.882 43.504 109.978 43.12H108.538C108.442 42.712 108.394 42.232 108.394 41.68C108.394 41.104 108.442 40.624 108.538 40.24H104.218C104.314 40.624 104.362 41.104 104.362 41.68C104.362 42.232 104.314 42.712 104.218 43.12H108.538C108.634 43.504 108.682 43.984 108.682 44.56C108.682 45.112 108.634 45.592 108.538 46H102.778C102.682 45.592 102.634 45.112 102.634 44.56C102.634 43.984 102.682 43.504 102.778 43.12H101.338C101.242 42.712 101.194 42.232 101.194 41.68C101.194 41.104 101.242 40.624 101.338 40.24H102.778C102.682 39.832 102.634 39.352 102.634 38.8C102.634 38.224 102.682 37.744 102.778 37.36H108.538C108.442 36.952 108.394 36.472 108.394 35.92C108.394 35.344 108.442 34.864 108.538 34.48H103.498C103.402 34.072 103.354 33.592 103.354 33.04C103.354 32.464 103.402 31.984 103.498 31.6H109.978C110.074 31.984 110.122 32.464 110.122 33.04C110.122 33.592 110.074 34.072 109.978 34.48H111.418C111.514 34.864 111.562 35.344 111.562 35.92C111.562 36.472 111.514 36.952 111.418 37.36C111.514 37.744 111.562 38.224 111.562 38.8C111.562 39.352 111.514 39.832 111.418 40.24C111.514 40.624 111.562 41.104 111.562 41.68C111.562 42.232 111.514 42.712 111.418 43.12H112.858ZM127.273 40.24C127.369 40.624 127.417 41.104 127.417 41.68C127.417 42.232 127.369 42.712 127.273 43.12H125.833C125.929 43.504 125.977 43.984 125.977 44.56C125.977 45.112 125.929 45.592 125.833 46H118.633C118.537 45.592 118.489 45.112 118.489 44.56C118.489 43.984 118.537 43.504 118.633 43.12H117.193C117.097 42.712 117.049 42.232 117.049 41.68C117.049 41.104 117.097 40.624 117.193 40.24H115.753C115.657 39.832 115.609 39.352 115.609 38.8C115.609 38.224 115.657 37.744 115.753 37.36H117.193C117.097 36.952 117.049 36.472 117.049 35.92C117.049 35.344 117.097 34.864 117.193 34.48H118.633C118.537 34.072 118.489 33.592 118.489 33.04C118.489 32.464 118.537 31.984 118.633 31.6H125.833C125.929 31.984 125.977 32.464 125.977 33.04C125.977 33.592 125.929 34.072 125.833 34.48H127.273C127.369 34.864 127.417 35.344 127.417 35.92C127.417 36.472 127.369 36.952 127.273 37.36H124.393C124.297 36.952 124.249 36.472 124.249 35.92C124.249 35.344 124.297 34.864 124.393 34.48H120.073C120.169 34.864 120.217 35.344 120.217 35.92C120.217 36.472 120.169 36.952 120.073 37.36H118.633C118.729 37.744 118.777 38.224 118.777 38.8C118.777 39.352 118.729 39.832 118.633 40.24H120.073C120.169 40.624 120.217 41.104 120.217 41.68C120.217 42.232 120.169 42.712 120.073 43.12H124.393C124.297 42.712 124.249 42.232 124.249 41.68C124.249 41.104 124.297 40.624 124.393 40.24H127.273ZM134.487 28.72C134.391 28.312 134.343 27.832 134.343 27.28C134.343 26.704 134.391 26.224 134.487 25.84H137.367C137.463 26.224 137.511 26.704 137.511 27.28C137.511 27.832 137.463 28.312 137.367 28.72H134.487ZM140.247 43.12C140.343 43.504 140.391 43.984 140.391 44.56C140.391 45.112 140.343 45.592 140.247 46H131.607C131.511 45.592 131.463 45.112 131.463 44.56C131.463 43.984 131.511 43.504 131.607 43.12H134.487C134.391 42.712 134.343 42.232 134.343 41.68C134.343 41.104 134.391 40.624 134.487 40.24C134.391 39.832 134.343 39.352 134.343 38.8C134.343 38.224 134.391 37.744 134.487 37.36C134.391 36.952 134.343 36.472 134.343 35.92C134.343 35.344 134.391 34.864 134.487 34.48H132.327C132.231 34.072 132.183 33.592 132.183 33.04C132.183 32.464 132.231 31.984 132.327 31.6H137.367C137.463 31.984 137.511 32.464 137.511 33.04C137.511 33.592 137.463 34.072 137.367 34.48C137.463 34.864 137.511 35.344 137.511 35.92C137.511 36.472 137.463 36.952 137.367 37.36C137.463 37.744 137.511 38.224 137.511 38.8C137.511 39.352 137.463 39.832 137.367 40.24C137.463 40.624 137.511 41.104 137.511 41.68C137.511 42.232 137.463 42.712 137.367 43.12H140.247ZM156.245 35.92C156.245 36.472 156.197 36.952 156.101 37.36C156.197 37.744 156.245 38.224 156.245 38.8C156.245 39.352 156.197 39.832 156.101 40.24H148.541C148.637 40.624 148.685 41.104 148.685 41.68C148.685 42.232 148.637 42.712 148.541 43.12H154.661C154.757 43.504 154.805 43.984 154.805 44.56C154.805 45.112 154.757 45.592 154.661 46H147.461C147.365 45.592 147.317 45.112 147.317 44.56C147.317 43.984 147.365 43.504 147.461 43.12H145.661C145.565 42.712 145.517 42.232 145.517 41.68C145.517 41.104 145.565 40.624 145.661 40.24H144.581C144.485 39.832 144.437 39.352 144.437 38.8C144.437 38.224 144.485 37.744 144.581 37.36H145.661C145.565 36.952 145.517 36.472 145.517 35.92C145.517 35.344 145.565 34.864 145.661 34.48H147.461C147.365 34.072 147.317 33.592 147.317 33.04C147.317 32.464 147.365 31.984 147.461 31.6H154.661C154.757 31.984 154.805 32.464 154.805 33.04C154.805 33.592 154.757 34.072 154.661 34.48H156.101C156.197 34.864 156.245 35.344 156.245 35.92ZM153.221 37.36C153.125 36.952 153.077 36.472 153.077 35.92C153.077 35.344 153.125 34.864 153.221 34.48H148.541C148.637 34.864 148.685 35.344 148.685 35.92C148.685 36.472 148.637 36.952 148.541 37.36H153.221ZM169.939 41.68C169.939 42.232 169.891 42.712 169.795 43.12H168.355C168.451 43.504 168.499 43.984 168.499 44.56C168.499 45.112 168.451 45.592 168.355 46H160.435C160.339 45.592 160.291 45.112 160.291 44.56C160.291 43.984 160.339 43.504 160.435 43.12H166.915C166.819 42.712 166.771 42.232 166.771 41.68C166.771 41.104 166.819 40.624 166.915 40.24H161.155C161.059 39.832 161.011 39.352 161.011 38.8C161.011 38.224 161.059 37.744 161.155 37.36H159.715C159.619 36.952 159.571 36.472 159.571 35.92C159.571 35.344 159.619 34.864 159.715 34.48H161.155C161.059 34.072 161.011 33.592 161.011 33.04C161.011 32.464 161.059 31.984 161.155 31.6H169.075C169.171 31.984 169.219 32.464 169.219 33.04C169.219 33.592 169.171 34.072 169.075 34.48H162.595C162.691 34.864 162.739 35.344 162.739 35.92C162.739 36.472 162.691 36.952 162.595 37.36H168.355C168.451 37.744 168.499 38.224 168.499 38.8C168.499 39.352 168.451 39.832 168.355 40.24H169.795C169.891 40.624 169.939 41.104 169.939 41.68Z" fill="url(#paint0_linear_238_459)"/>
<defs>
<linearGradient id="paint0_linear_238_459" x1="120.5" y1="-2" x2="49" y2="54" gradientUnits="userSpaceOnUse">
<stop stop-color="#D446ED"/>
<stop offset="1" stop-color="#1271FF"/>
</linearGradient>
</defs>
</svg>
