<?xml version="1.0" encoding="utf-8"?>
<!-- Generator: Adobe Illustrator 25.0.1, SVG Export Plug-In . SVG Version: 6.00 Build 0)  -->
<svg version="1.1" id="Layer_1" xmlns="http://www.w3.org/2000/svg" xmlns:xlink="http://www.w3.org/1999/xlink" x="0px" y="0px"
	 viewBox="0 0 236.2 67.6" style="enable-background:new 0 0 236.2 67.6;" xml:space="preserve">
<style type="text/css">
	.st0{fill:#FF0000;}
</style>
<g>
	<path class="st0" d="M17.7,56.4L7,58.3c-0.5-1.3-0.8-2.6-1-3.9c-0.3-1.4-0.4-2.9-0.4-4.2l10.8-1.9c0.5,1.3,0.8,2.6,1,3.9
		C17.6,53.5,17.7,55,17.7,56.4z"/>
	<path class="st0" d="M8.7,66.4l-6.9,1.3c-0.4-1.3-0.7-2.6-0.9-3.9c-0.3-1.4-0.5-2.9-0.6-4.2l6.9-1.3c0.4,1.3,0.7,2.6,0.9,3.9
		C8.4,63.5,8.6,65,8.7,66.4z"/>
	<path class="st0" d="M222.3,11l13.9-2.5c0-1.4-0.1-2.9-0.4-4.3c-0.2-1.3-0.6-2.6-1.1-3.9l-0.4,0.1v0l-215.9,39v0l-3.7,0.7
		c0,1.4,0.1,2.9,0.4,4.3c0.2,1.3,0.6,2.6,1.1,3.9L30,45.7v0L222.3,11L222.3,11z"/>
</g>
</svg>
