<?xml version="1.0" encoding="utf-8"?>
<!-- Generator: Adobe Illustrator 25.0.1, SVG Export Plug-In . SVG Version: 6.00 Build 0)  -->
<svg version="1.1" id="Layer_1" xmlns="http://www.w3.org/2000/svg" xmlns:xlink="http://www.w3.org/1999/xlink" x="0px" y="0px"
	 viewBox="0 0 236.2 67.6" style="enable-background:new 0 0 236.2 67.6;" xml:space="preserve">
<style type="text/css">
	.st0{fill:#FF0000;}
</style>
<rect x="-0.4" y="39.6" transform="matrix(0.9838 -0.1794 0.1794 0.9838 -6.0652 20.327)" class="st0" width="219.4" height="8.3"/>
<path class="st0" d="M206.3,21.8l13.9-2.5c0.5,1.2,0.9,2.5,1.1,3.9c0.3,1.4,0.4,2.9,0.4,4.3l-13.9,2.5c-0.5-1.2-0.9-2.5-1.1-3.9
	C206.4,24.7,206.3,23.2,206.3,21.8z"/>
<path class="st0" d="M218.6,11.1l10.8-2c0.5,1.3,0.8,2.6,1,3.9c0.3,1.4,0.4,2.9,0.5,4.2l-10.8,2c-0.5-1.3-0.8-2.6-1-3.9
	C218.8,14,218.6,12.5,218.6,11.1z"/>
<path class="st0" d="M227.6,1.1l6.9-1.3c0.4,1.3,0.7,2.6,0.9,3.9c0.3,1.4,0.5,2.9,0.6,4.2l-6.9,1.3c-0.4-1.3-0.7-2.6-0.9-3.9
	C227.9,3.9,227.7,2.5,227.6,1.1z"/>
<path class="st0" d="M0.3,59.4l13.9-2.5c0.5,1.2,0.9,2.5,1.1,3.9c0.3,1.4,0.4,2.9,0.4,4.3L1.8,67.5c-0.5-1.2-0.9-2.5-1.1-3.9
	C0.4,62.3,0.2,60.8,0.3,59.4z"/>
</svg>
