<svg width="25" height="24" viewBox="0 0 25 24" fill="none" xmlns="http://www.w3.org/2000/svg">
<path d="M23.6772 0.582077L13.9863 7.71395L15.7894 3.51099L23.6772 0.582077Z" fill="#E17726" stroke="#E17726" stroke-width="2.6505" stroke-linecap="round" stroke-linejoin="round"/>
<path d="M1.32275 0.582077L10.9301 7.7832L9.21053 3.51099L1.32275 0.582077Z" fill="#E27625" stroke="#E27625" stroke-width="2.6505" stroke-linecap="round" stroke-linejoin="round"/>
<path d="M20.1894 17.1239L17.6135 21.043L23.1343 22.5524L24.7146 17.207L20.1894 17.1239Z" fill="#E27625" stroke="#E27625" stroke-width="2.6505" stroke-linecap="round" stroke-linejoin="round"/>
<path d="M0.29248 17.2139L1.86586 22.5593L7.37964 21.0499L4.81072 17.1308L0.29248 17.2139Z" fill="#E27625" stroke="#E27625" stroke-width="2.6505" stroke-linecap="round" stroke-linejoin="round"/>
<path d="M7.08019 10.5044L5.54858 12.8032L11.0136 13.0525L10.8326 7.20157L7.08019 10.5044Z" fill="#E27625" stroke="#E27625" stroke-width="2.6505" stroke-linecap="round" stroke-linejoin="round"/>
<path d="M17.9198 10.5044L14.1116 7.13925L13.9863 13.0525L19.4514 12.8032L17.9198 10.5044Z" fill="#E27625" stroke="#E27625" stroke-width="2.6505" stroke-linecap="round" stroke-linejoin="round"/>
<path d="M7.37964 21.0429L10.6865 19.4573L7.83912 17.2485L7.37964 21.0429Z" fill="#E27625" stroke="#E27625" stroke-width="2.6505" stroke-linecap="round" stroke-linejoin="round"/>
<path d="M14.3137 19.4573L17.6136 21.0429L17.1611 17.2485L14.3137 19.4573Z" fill="#E27625" stroke="#E27625" stroke-width="2.6505" stroke-linecap="round" stroke-linejoin="round"/>
<path d="M17.6136 21.043L14.3137 19.4573L14.5852 21.59L14.5574 22.497L17.6136 21.043Z" fill="#D5BFB2" stroke="#D5BFB2" stroke-width="2.6505" stroke-linecap="round" stroke-linejoin="round"/>
<path d="M7.37964 21.0429L10.4498 22.4901L10.4289 21.583L10.6865 19.4504L7.37964 21.0429Z" fill="#D5BFB2" stroke="#D5BFB2" stroke-width="2.6505" stroke-linecap="round" stroke-linejoin="round"/>
<path d="M10.5054 15.8429L7.76245 15.0466L9.69785 14.1603L10.5054 15.8429Z" fill="#233447" stroke="#233447" stroke-width="2.6505" stroke-linecap="round" stroke-linejoin="round"/>
<path d="M14.4946 15.8429L15.3022 14.1603L17.2515 15.0466L14.4946 15.8429Z" fill="#233447" stroke="#233447" stroke-width="2.6505" stroke-linecap="round" stroke-linejoin="round"/>
<path d="M7.37971 21.043L7.86008 17.1239L4.81079 17.207L7.37971 21.043Z" fill="#CC6228" stroke="#CC6228" stroke-width="2.6505" stroke-linecap="round" stroke-linejoin="round"/>
<path d="M17.1401 17.1239L17.6066 21.043L20.1825 17.207L17.1401 17.1239Z" fill="#CC6228" stroke="#CC6228" stroke-width="2.6505" stroke-linecap="round" stroke-linejoin="round"/>
<path d="M19.4514 12.8101L13.9863 13.0594L14.4945 15.8498L15.3021 14.1673L17.2514 15.0535L19.4514 12.8101Z" fill="#CC6228" stroke="#CC6228" stroke-width="2.6505" stroke-linecap="round" stroke-linejoin="round"/>
<path d="M7.76245 15.0397L9.69784 14.1534L10.5054 15.836L11.0136 13.0456L5.54858 12.7963L7.76245 15.0397Z" fill="#CC6228" stroke="#CC6228" stroke-width="2.6505" stroke-linecap="round" stroke-linejoin="round"/>
<path d="M5.54858 12.8101L7.83903 17.2554L7.76245 15.0466L5.54858 12.8101Z" fill="#E27525" stroke="#E27525" stroke-width="2.6505" stroke-linecap="round" stroke-linejoin="round"/>
<path d="M17.2447 15.0397L17.1611 17.2485L19.4516 12.8032L17.2447 15.0397Z" fill="#E27525" stroke="#E27525" stroke-width="2.6505" stroke-linecap="round" stroke-linejoin="round"/>
<path d="M11.0138 13.0525L10.5056 15.8429L11.1461 19.1319L11.2923 14.7974L11.0138 13.0525Z" fill="#E27525" stroke="#E27525" stroke-width="2.6505" stroke-linecap="round" stroke-linejoin="round"/>
<path d="M13.9864 13.0525L13.7148 14.7835L13.8471 19.1319L14.4876 15.8429L13.9864 13.0525Z" fill="#E27525" stroke="#E27525" stroke-width="2.6505" stroke-linecap="round" stroke-linejoin="round"/>
<path d="M14.4947 15.8429L13.8542 19.1319L14.3137 19.4573L17.1611 17.2485L17.2447 15.0397L14.4947 15.8429Z" fill="#F5841F" stroke="#F5841F" stroke-width="2.6505" stroke-linecap="round" stroke-linejoin="round"/>
<path d="M7.76245 15.0397L7.83903 17.2485L10.6864 19.4573L11.1459 19.1319L10.5054 15.8429L7.76245 15.0397Z" fill="#F5841F" stroke="#F5841F" stroke-width="2.6505" stroke-linecap="round" stroke-linejoin="round"/>
<path d="M14.5503 22.4901L14.5782 21.583L14.3276 21.3753H10.6656L10.4289 21.583L10.4498 22.4901L7.37964 21.043L8.45176 21.9154L10.6308 23.411H14.3624L16.5484 21.9154L17.6136 21.043L14.5503 22.4901Z" fill="#C0AC9D" stroke="#C0AC9D" stroke-width="2.6505" stroke-linecap="round" stroke-linejoin="round"/>
<path d="M14.3135 19.4573L13.8541 19.1319H11.1529L10.6934 19.4573L10.4358 21.59L10.6725 21.3822H14.3344L14.5851 21.59L14.3135 19.4573Z" fill="#161616" stroke="#161616" stroke-width="2.6505" stroke-linecap="round" stroke-linejoin="round"/>
<path d="M24.095 8.1848L24.9095 4.24496L23.6773 0.582077L14.3066 7.47854L17.9129 10.5044L23.002 11.9792L24.1228 10.6775L23.6355 10.3244L24.4152 9.6181L23.8235 9.16111L24.6032 8.57255L24.095 8.1848Z" fill="#763E1A" stroke="#763E1A" stroke-width="2.6505" stroke-linecap="round" stroke-linejoin="round"/>
<path d="M0.0905762 4.24496L0.912075 8.1848L0.382974 8.57255L1.16966 9.16111L0.577906 9.6181L1.35763 10.3244L0.870303 10.6775L1.99116 11.9792L7.08027 10.5044L10.6865 7.47854L1.32282 0.582077L0.0905762 4.24496Z" fill="#763E1A" stroke="#763E1A" stroke-width="2.6505" stroke-linecap="round" stroke-linejoin="round"/>
<path d="M23.0091 11.9792L17.92 10.5044L19.4516 12.8032L17.1611 17.2485L20.1895 17.2139H24.7147L23.0091 11.9792Z" fill="#F5841F" stroke="#F5841F" stroke-width="2.6505" stroke-linecap="round" stroke-linejoin="round"/>
<path d="M7.08028 10.5044L1.99117 11.9792L0.29248 17.2139H4.81072L7.83913 17.2485L5.54868 12.8032L7.08028 10.5044Z" fill="#F5841F" stroke="#F5841F" stroke-width="2.6505" stroke-linecap="round" stroke-linejoin="round"/>
<path d="M13.9865 13.0525L14.3137 7.47853L15.7896 3.51099H9.21069L10.6866 7.47853L11.0138 13.0525L11.1391 14.8043L11.1461 19.1319H13.8542L13.8612 14.8043L13.9865 13.0525Z" fill="#F5841F" stroke="#F5841F" stroke-width="2.6505" stroke-linecap="round" stroke-linejoin="round"/>
</svg>
