<svg width="28" height="28" viewBox="0 0 28 28" fill="none" xmlns="http://www.w3.org/2000/svg">
<path fill-rule="evenodd" clip-rule="evenodd" d="M14 0C21.7328 0 28 6.26719 28 14C28 21.7328 21.7328 28 14 28C6.26719 28 0 21.7328 0 14C0 6.26719 6.26719 0 14 0Z" fill="url(#paint0_radial_1396_2167)"/>
<path d="M8.8977 10.8117C11.7141 8.06094 16.286 8.06094 19.1024 10.8117L19.4415 11.1453C19.5836 11.282 19.5836 11.5063 19.4415 11.643L18.2821 12.775C18.211 12.8461 18.0961 12.8461 18.0251 12.775L17.5602 12.3211C15.5915 10.4016 12.4086 10.4016 10.4399 12.3211L9.94224 12.8078C9.87114 12.8789 9.7563 12.8789 9.68521 12.8078L8.52583 11.6758C8.38364 11.5391 8.38364 11.3148 8.52583 11.1781L8.8977 10.8117ZM21.5032 13.1523L22.5368 14.1586C22.679 14.2953 22.679 14.5195 22.5368 14.6563L17.8829 19.2008C17.7407 19.3375 17.511 19.3375 17.3743 19.2008L14.0711 15.9742C14.0383 15.9414 13.9782 15.9414 13.9454 15.9742L10.6422 19.2008C10.5 19.3375 10.2704 19.3375 10.1336 19.2008L5.46333 14.6563C5.32114 14.5195 5.32114 14.2953 5.46333 14.1586L6.49692 13.1523C6.63911 13.0156 6.8688 13.0156 7.00552 13.1523L10.3086 16.3789C10.3415 16.4117 10.4016 16.4117 10.4344 16.3789L13.7375 13.1523C13.8797 13.0156 14.1094 13.0156 14.2461 13.1523L17.5493 16.3789C17.5821 16.4117 17.6422 16.4117 17.6751 16.3789L20.9782 13.1523C21.1313 13.0156 21.361 13.0156 21.5032 13.1523Z" fill="white"/>
<defs>
<radialGradient id="paint0_radial_1396_2167" cx="0" cy="0" r="1" gradientUnits="userSpaceOnUse" gradientTransform="translate(0.000564098 14.0003) scale(28)">
<stop stop-color="#5D9DF6"/>
<stop offset="1" stop-color="#006FFF"/>
</radialGradient>
</defs>
</svg>
